<svg width="376" height="61" viewBox="0 0 376 61" fill="none" xmlns="http://www.w3.org/2000/svg">
<path d="M1.596 15.16V5.36003H2.632V14.264H8.12V15.16H1.596ZM12.5168 15.23C11.8074 15.23 11.1681 15.0714 10.5988 14.754C10.0388 14.4274 9.59543 13.984 9.26877 13.424C8.9421 12.8547 8.77877 12.206 8.77877 11.478C8.77877 10.7407 8.9421 10.092 9.26877 9.53203C9.59543 8.97203 10.0388 8.53337 10.5988 8.21603C11.1588 7.8987 11.7981 7.74003 12.5168 7.74003C13.2448 7.74003 13.8888 7.8987 14.4488 8.21603C15.0181 8.53337 15.4614 8.97203 15.7788 9.53203C16.1054 10.092 16.2688 10.7407 16.2688 11.478C16.2688 12.206 16.1054 12.8547 15.7788 13.424C15.4614 13.984 15.0181 14.4274 14.4488 14.754C13.8794 15.0714 13.2354 15.23 12.5168 15.23ZM12.5168 14.348C13.0488 14.348 13.5201 14.2314 13.9308 13.998C14.3414 13.7554 14.6634 13.4194 14.8968 12.99C15.1394 12.5514 15.2608 12.0474 15.2608 11.478C15.2608 10.8994 15.1394 10.3954 14.8968 9.96603C14.6634 9.5367 14.3414 9.20537 13.9308 8.97203C13.5201 8.72937 13.0534 8.60803 12.5308 8.60803C12.0081 8.60803 11.5414 8.72937 11.1308 8.97203C10.7201 9.20537 10.3934 9.5367 10.1508 9.96603C9.9081 10.3954 9.78677 10.8994 9.78677 11.478C9.78677 12.0474 9.9081 12.5514 10.1508 12.99C10.3934 13.4194 10.7201 13.7554 11.1308 13.998C11.5414 14.2314 12.0034 14.348 12.5168 14.348ZM18.2981 15.16V7.81003H19.2501V9.81203L19.1521 9.46203C19.3574 8.90203 19.7028 8.47737 20.1881 8.18803C20.6734 7.88937 21.2754 7.74003 21.9941 7.74003V8.70603C21.9568 8.70603 21.9194 8.70603 21.8821 8.70603C21.8448 8.6967 21.8074 8.69203 21.7701 8.69203C20.9954 8.69203 20.3888 8.93003 19.9501 9.40603C19.5114 9.8727 19.2921 10.54 19.2921 11.408V15.16H18.2981ZM26.8615 15.23C26.0962 15.23 25.4242 15.0714 24.8455 14.754C24.2668 14.4274 23.8142 13.984 23.4875 13.424C23.1608 12.8547 22.9975 12.206 22.9975 11.478C22.9975 10.75 23.1515 10.106 23.4595 9.54603C23.7768 8.98603 24.2062 8.54737 24.7475 8.23003C25.2982 7.90337 25.9142 7.74003 26.5955 7.74003C27.2862 7.74003 27.8975 7.8987 28.4295 8.21603C28.9708 8.52403 29.3955 8.9627 29.7035 9.53203C30.0115 10.092 30.1655 10.7407 30.1655 11.478C30.1655 11.5247 30.1608 11.576 30.1515 11.632C30.1515 11.6787 30.1515 11.73 30.1515 11.786H23.7535V11.044H29.6195L29.2275 11.338C29.2275 10.806 29.1108 10.3347 28.8775 9.92403C28.6535 9.50403 28.3455 9.17737 27.9535 8.94403C27.5615 8.7107 27.1088 8.59403 26.5955 8.59403C26.0915 8.59403 25.6388 8.7107 25.2375 8.94403C24.8362 9.17737 24.5235 9.50403 24.2995 9.92403C24.0755 10.344 23.9635 10.8247 23.9635 11.366V11.52C23.9635 12.08 24.0848 12.5747 24.3275 13.004C24.5795 13.424 24.9248 13.7554 25.3635 13.998C25.8115 14.2314 26.3202 14.348 26.8895 14.348C27.3375 14.348 27.7528 14.2687 28.1355 14.11C28.5275 13.9514 28.8635 13.7087 29.1435 13.382L29.7035 14.026C29.3768 14.418 28.9662 14.7167 28.4715 14.922C27.9862 15.1274 27.4495 15.23 26.8615 15.23ZM41.3727 7.74003C41.9701 7.74003 42.4881 7.8567 42.9267 8.09003C43.3747 8.31403 43.7201 8.65937 43.9627 9.12603C44.2147 9.5927 44.3407 10.1807 44.3407 10.89V15.16H43.3467V10.988C43.3467 10.2134 43.1601 9.63003 42.7867 9.23803C42.4227 8.8367 41.9047 8.63603 41.2327 8.63603C40.7287 8.63603 40.2901 8.74337 39.9167 8.95803C39.5527 9.16337 39.2681 9.4667 39.0627 9.86803C38.8667 10.26 38.7687 10.736 38.7687 11.296V15.16H37.7747V10.988C37.7747 10.2134 37.5881 9.63003 37.2147 9.23803C36.8414 8.8367 36.3187 8.63603 35.6467 8.63603C35.1521 8.63603 34.7181 8.74337 34.3447 8.95803C33.9714 9.16337 33.6821 9.4667 33.4767 9.86803C33.2807 10.26 33.1827 10.736 33.1827 11.296V15.16H32.1887V7.81003H33.1407V9.79803L32.9867 9.44803C33.2107 8.91603 33.5701 8.5007 34.0647 8.20203C34.5687 7.89403 35.1614 7.74003 35.8427 7.74003C36.5614 7.74003 37.1727 7.92203 37.6767 8.28603C38.1807 8.6407 38.5074 9.17737 38.6567 9.89603L38.2647 9.74203C38.4794 9.1447 38.8574 8.66403 39.3987 8.30003C39.9494 7.9267 40.6074 7.74003 41.3727 7.74003ZM50.7005 15.16V7.81003H51.6945V15.16H50.7005ZM51.2045 6.18603C50.9991 6.18603 50.8265 6.11603 50.6865 5.97603C50.5465 5.83603 50.4765 5.66803 50.4765 5.47203C50.4765 5.27603 50.5465 5.1127 50.6865 4.98203C50.8265 4.84203 50.9991 4.77203 51.2045 4.77203C51.4098 4.77203 51.5825 4.83737 51.7225 4.96803C51.8625 5.0987 51.9325 5.26203 51.9325 5.45803C51.9325 5.66337 51.8625 5.83603 51.7225 5.97603C51.5918 6.11603 51.4191 6.18603 51.2045 6.18603ZM58.2542 15.23C57.6196 15.23 57.0456 15.0854 56.5322 14.796C56.0189 14.4974 55.6082 14.0727 55.3002 13.522C55.0016 12.962 54.8522 12.2807 54.8522 11.478C54.8522 10.6754 55.0016 9.9987 55.3002 9.44803C55.5989 8.88803 56.0049 8.46337 56.5182 8.17403C57.0316 7.8847 57.6102 7.74003 58.2542 7.74003C58.9542 7.74003 59.5796 7.8987 60.1302 8.21603C60.6902 8.52403 61.1289 8.9627 61.4462 9.53203C61.7636 10.092 61.9222 10.7407 61.9222 11.478C61.9222 12.2247 61.7636 12.878 61.4462 13.438C61.1289 13.998 60.6902 14.4367 60.1302 14.754C59.5796 15.0714 58.9542 15.23 58.2542 15.23ZM54.4602 17.876V7.81003H55.4122V10.022L55.3142 11.492L55.4542 12.976V17.876H54.4602ZM58.1842 14.348C58.7069 14.348 59.1736 14.2314 59.5842 13.998C59.9949 13.7554 60.3216 13.4194 60.5642 12.99C60.8069 12.5514 60.9282 12.0474 60.9282 11.478C60.9282 10.9087 60.8069 10.4094 60.5642 9.98003C60.3216 9.5507 59.9949 9.2147 59.5842 8.97203C59.1736 8.72937 58.7069 8.60803 58.1842 8.60803C57.6616 8.60803 57.1902 8.72937 56.7702 8.97203C56.3596 9.2147 56.0329 9.5507 55.7902 9.98003C55.5569 10.4094 55.4402 10.9087 55.4402 11.478C55.4402 12.0474 55.5569 12.5514 55.7902 12.99C56.0329 13.4194 56.3596 13.7554 56.7702 13.998C57.1902 14.2314 57.6616 14.348 58.1842 14.348ZM65.9225 15.23C65.3158 15.23 64.7418 15.146 64.2005 14.978C63.6592 14.8007 63.2345 14.5814 62.9265 14.32L63.3745 13.536C63.6732 13.76 64.0558 13.956 64.5225 14.124C64.9892 14.2827 65.4792 14.362 65.9925 14.362C66.6925 14.362 67.1965 14.2547 67.5045 14.04C67.8125 13.816 67.9665 13.522 67.9665 13.158C67.9665 12.8874 67.8778 12.6774 67.7005 12.528C67.5325 12.3694 67.3085 12.2527 67.0285 12.178C66.7485 12.094 66.4358 12.024 66.0905 11.968C65.7452 11.912 65.3998 11.8467 65.0545 11.772C64.7185 11.6974 64.4105 11.59 64.1305 11.45C63.8505 11.3007 63.6218 11.1 63.4445 10.848C63.2765 10.596 63.1925 10.26 63.1925 9.84003C63.1925 9.4387 63.3045 9.07937 63.5285 8.76203C63.7525 8.4447 64.0792 8.19737 64.5085 8.02003C64.9472 7.83337 65.4792 7.74003 66.1045 7.74003C66.5805 7.74003 67.0565 7.80537 67.5325 7.93603C68.0085 8.05737 68.4005 8.2207 68.7085 8.42603L68.2745 9.22403C67.9478 9.00003 67.5978 8.84137 67.2245 8.74803C66.8512 8.64537 66.4778 8.59403 66.1045 8.59403C65.4418 8.59403 64.9518 8.7107 64.6345 8.94403C64.3265 9.16803 64.1725 9.45737 64.1725 9.81203C64.1725 10.092 64.2565 10.3114 64.4245 10.47C64.6018 10.6287 64.8305 10.7547 65.1105 10.848C65.3998 10.932 65.7125 11.002 66.0485 11.058C66.3938 11.114 66.7345 11.184 67.0705 11.268C67.4158 11.3427 67.7285 11.45 68.0085 11.59C68.2978 11.7207 68.5265 11.912 68.6945 12.164C68.8718 12.4067 68.9605 12.7287 68.9605 13.13C68.9605 13.5594 68.8392 13.9327 68.5965 14.25C68.3632 14.558 68.0178 14.8007 67.5605 14.978C67.1125 15.146 66.5665 15.23 65.9225 15.23ZM73.8224 15.23C73.1971 15.23 72.6511 15.1134 72.1844 14.88C71.7178 14.6467 71.3538 14.2967 71.0924 13.83C70.8404 13.3634 70.7144 12.78 70.7144 12.08V7.81003H71.7084V11.968C71.7084 12.752 71.8998 13.3447 72.2824 13.746C72.6744 14.138 73.2204 14.334 73.9204 14.334C74.4338 14.334 74.8771 14.2314 75.2504 14.026C75.6331 13.8114 75.9224 13.5034 76.1184 13.102C76.3238 12.7007 76.4264 12.22 76.4264 11.66V7.81003H77.4204V15.16H76.4684V13.144L76.6224 13.508C76.3891 14.0494 76.0251 14.474 75.5304 14.782C75.0451 15.0807 74.4758 15.23 73.8224 15.23ZM89.3747 7.74003C89.972 7.74003 90.49 7.8567 90.9287 8.09003C91.3767 8.31403 91.722 8.65937 91.9647 9.12603C92.2167 9.5927 92.3427 10.1807 92.3427 10.89V15.16H91.3487V10.988C91.3487 10.2134 91.162 9.63003 90.7887 9.23803C90.4247 8.8367 89.9067 8.63603 89.2347 8.63603C88.7307 8.63603 88.292 8.74337 87.9187 8.95803C87.5547 9.16337 87.27 9.4667 87.0647 9.86803C86.8687 10.26 86.7707 10.736 86.7707 11.296V15.16H85.7767V10.988C85.7767 10.2134 85.59 9.63003 85.2167 9.23803C84.8434 8.8367 84.3207 8.63603 83.6487 8.63603C83.154 8.63603 82.72 8.74337 82.3467 8.95803C81.9734 9.16337 81.684 9.4667 81.4787 9.86803C81.2827 10.26 81.1847 10.736 81.1847 11.296V15.16H80.1907V7.81003H81.1427V9.79803L80.9887 9.44803C81.2127 8.91603 81.572 8.5007 82.0667 8.20203C82.5707 7.89403 83.1634 7.74003 83.8447 7.74003C84.5634 7.74003 85.1747 7.92203 85.6787 8.28603C86.1827 8.6407 86.5094 9.17737 86.6587 9.89603L86.2667 9.74203C86.4814 9.1447 86.8594 8.66403 87.4007 8.30003C87.9514 7.9267 88.6094 7.74003 89.3747 7.74003ZM101.628 15.23C100.928 15.23 100.298 15.0714 99.7384 14.754C99.1877 14.4367 98.7537 13.998 98.4364 13.438C98.1191 12.8687 97.9604 12.2154 97.9604 11.478C97.9604 10.7314 98.1191 10.078 98.4364 9.51803C98.7537 8.95803 99.1877 8.52403 99.7384 8.21603C100.298 7.8987 100.928 7.74003 101.628 7.74003C102.272 7.74003 102.846 7.8847 103.35 8.17403C103.864 8.46337 104.27 8.88803 104.568 9.44803C104.876 9.9987 105.03 10.6754 105.03 11.478C105.03 12.2714 104.881 12.948 104.582 13.508C104.284 14.068 103.878 14.4974 103.364 14.796C102.86 15.0854 102.282 15.23 101.628 15.23ZM101.698 14.348C102.221 14.348 102.688 14.2314 103.098 13.998C103.518 13.7554 103.845 13.4194 104.078 12.99C104.321 12.5514 104.442 12.0474 104.442 11.478C104.442 10.8994 104.321 10.3954 104.078 9.96603C103.845 9.5367 103.518 9.20537 103.098 8.97203C102.688 8.72937 102.221 8.60803 101.698 8.60803C101.185 8.60803 100.723 8.72937 100.312 8.97203C99.9017 9.20537 99.5751 9.5367 99.3324 9.96603C99.0897 10.3954 98.9684 10.8994 98.9684 11.478C98.9684 12.0474 99.0897 12.5514 99.3324 12.99C99.5751 13.4194 99.9017 13.7554 100.312 13.998C100.723 14.2314 101.185 14.348 101.698 14.348ZM104.47 15.16V12.948L104.568 11.464L104.428 9.98003V4.77203H105.422V15.16H104.47ZM111.187 15.23C110.477 15.23 109.838 15.0714 109.269 14.754C108.709 14.4274 108.265 13.984 107.939 13.424C107.612 12.8547 107.449 12.206 107.449 11.478C107.449 10.7407 107.612 10.092 107.939 9.53203C108.265 8.97203 108.709 8.53337 109.269 8.21603C109.829 7.8987 110.468 7.74003 111.187 7.74003C111.915 7.74003 112.559 7.8987 113.119 8.21603C113.688 8.53337 114.131 8.97203 114.449 9.53203C114.775 10.092 114.939 10.7407 114.939 11.478C114.939 12.206 114.775 12.8547 114.449 13.424C114.131 13.984 113.688 14.4274 113.119 14.754C112.549 15.0714 111.905 15.23 111.187 15.23ZM111.187 14.348C111.719 14.348 112.19 14.2314 112.601 13.998C113.011 13.7554 113.333 13.4194 113.567 12.99C113.809 12.5514 113.931 12.0474 113.931 11.478C113.931 10.8994 113.809 10.3954 113.567 9.96603C113.333 9.5367 113.011 9.20537 112.601 8.97203C112.19 8.72937 111.723 8.60803 111.201 8.60803C110.678 8.60803 110.211 8.72937 109.801 8.97203C109.39 9.20537 109.063 9.5367 108.821 9.96603C108.578 10.3954 108.457 10.8994 108.457 11.478C108.457 12.0474 108.578 12.5514 108.821 12.99C109.063 13.4194 109.39 13.7554 109.801 13.998C110.211 14.2314 110.673 14.348 111.187 14.348ZM116.968 15.16V4.77203H117.962V15.16H116.968ZM123.724 15.23C123.014 15.23 122.375 15.0714 121.806 14.754C121.246 14.4274 120.802 13.984 120.476 13.424C120.149 12.8547 119.986 12.206 119.986 11.478C119.986 10.7407 120.149 10.092 120.476 9.53203C120.802 8.97203 121.246 8.53337 121.806 8.21603C122.366 7.8987 123.005 7.74003 123.724 7.74003C124.452 7.74003 125.096 7.8987 125.656 8.21603C126.225 8.53337 126.668 8.97203 126.986 9.53203C127.312 10.092 127.476 10.7407 127.476 11.478C127.476 12.206 127.312 12.8547 126.986 13.424C126.668 13.984 126.225 14.4274 125.656 14.754C125.086 15.0714 124.442 15.23 123.724 15.23ZM123.724 14.348C124.256 14.348 124.727 14.2314 125.138 13.998C125.548 13.7554 125.87 13.4194 126.104 12.99C126.346 12.5514 126.468 12.0474 126.468 11.478C126.468 10.8994 126.346 10.3954 126.104 9.96603C125.87 9.5367 125.548 9.20537 125.138 8.97203C124.727 8.72937 124.26 8.60803 123.738 8.60803C123.215 8.60803 122.748 8.72937 122.338 8.97203C121.927 9.20537 121.6 9.5367 121.358 9.96603C121.115 10.3954 120.994 10.8994 120.994 11.478C120.994 12.0474 121.115 12.5514 121.358 12.99C121.6 13.4194 121.927 13.7554 122.338 13.998C122.748 14.2314 123.21 14.348 123.724 14.348ZM129.505 15.16V7.81003H130.457V9.81203L130.359 9.46203C130.564 8.90203 130.91 8.47737 131.395 8.18803C131.88 7.88937 132.482 7.74003 133.201 7.74003V8.70603C133.164 8.70603 133.126 8.70603 133.089 8.70603C133.052 8.6967 133.014 8.69203 132.977 8.69203C132.202 8.69203 131.596 8.93003 131.157 9.40603C130.718 9.8727 130.499 10.54 130.499 11.408V15.16H129.505ZM140.762 15.23C140.156 15.23 139.582 15.146 139.04 14.978C138.499 14.8007 138.074 14.5814 137.766 14.32L138.214 13.536C138.513 13.76 138.896 13.956 139.362 14.124C139.829 14.2827 140.319 14.362 140.832 14.362C141.532 14.362 142.036 14.2547 142.344 14.04C142.652 13.816 142.806 13.522 142.806 13.158C142.806 12.8874 142.718 12.6774 142.54 12.528C142.372 12.3694 142.148 12.2527 141.868 12.178C141.588 12.094 141.276 12.024 140.93 11.968C140.585 11.912 140.24 11.8467 139.894 11.772C139.558 11.6974 139.25 11.59 138.97 11.45C138.69 11.3007 138.462 11.1 138.284 10.848C138.116 10.596 138.032 10.26 138.032 9.84003C138.032 9.4387 138.144 9.07937 138.368 8.76203C138.592 8.4447 138.919 8.19737 139.348 8.02003C139.787 7.83337 140.319 7.74003 140.944 7.74003C141.42 7.74003 141.896 7.80537 142.372 7.93603C142.848 8.05737 143.24 8.2207 143.548 8.42603L143.114 9.22403C142.788 9.00003 142.438 8.84137 142.064 8.74803C141.691 8.64537 141.318 8.59403 140.944 8.59403C140.282 8.59403 139.792 8.7107 139.474 8.94403C139.166 9.16803 139.012 9.45737 139.012 9.81203C139.012 10.092 139.096 10.3114 139.264 10.47C139.442 10.6287 139.67 10.7547 139.95 10.848C140.24 10.932 140.552 11.002 140.888 11.058C141.234 11.114 141.574 11.184 141.91 11.268C142.256 11.3427 142.568 11.45 142.848 11.59C143.138 11.7207 143.366 11.912 143.534 12.164C143.712 12.4067 143.8 12.7287 143.8 13.13C143.8 13.5594 143.679 13.9327 143.436 14.25C143.203 14.558 142.858 14.8007 142.4 14.978C141.952 15.146 141.406 15.23 140.762 15.23ZM145.624 15.16V7.81003H146.618V15.16H145.624ZM146.128 6.18603C145.923 6.18603 145.75 6.11603 145.61 5.97603C145.47 5.83603 145.4 5.66803 145.4 5.47203C145.4 5.27603 145.47 5.1127 145.61 4.98203C145.75 4.84203 145.923 4.77203 146.128 4.77203C146.334 4.77203 146.506 4.83737 146.646 4.96803C146.786 5.0987 146.856 5.26203 146.856 5.45803C146.856 5.66337 146.786 5.83603 146.646 5.97603C146.516 6.11603 146.343 6.18603 146.128 6.18603ZM151.708 15.23C151.017 15.23 150.485 15.0434 150.112 14.67C149.739 14.2967 149.552 13.7694 149.552 13.088V6.18603H150.546V13.032C150.546 13.4614 150.653 13.7927 150.868 14.026C151.092 14.2594 151.409 14.376 151.82 14.376C152.259 14.376 152.623 14.25 152.912 13.998L153.262 14.712C153.066 14.8894 152.828 15.02 152.548 15.104C152.277 15.188 151.997 15.23 151.708 15.23ZM148.236 8.63603V7.81003H152.786V8.63603H148.236ZM163.342 15.16V13.536L163.3 13.27V10.554C163.3 9.9287 163.122 9.44803 162.768 9.11203C162.422 8.77603 161.904 8.60803 161.214 8.60803C160.738 8.60803 160.285 8.68737 159.856 8.84603C159.426 9.0047 159.062 9.2147 158.764 9.47603L158.316 8.73403C158.689 8.4167 159.137 8.17403 159.66 8.00603C160.182 7.8287 160.733 7.74003 161.312 7.74003C162.264 7.74003 162.996 7.97803 163.51 8.45403C164.032 8.9207 164.294 9.6347 164.294 10.596V15.16H163.342ZM160.808 15.23C160.257 15.23 159.776 15.1414 159.366 14.964C158.964 14.7774 158.656 14.5254 158.442 14.208C158.227 13.8814 158.12 13.508 158.12 13.088C158.12 12.7054 158.208 12.36 158.386 12.052C158.572 11.7347 158.871 11.4827 159.282 11.296C159.702 11.1 160.262 11.002 160.962 11.002H163.496V11.744H160.99C160.28 11.744 159.786 11.87 159.506 12.122C159.235 12.374 159.1 12.6867 159.1 13.06C159.1 13.48 159.263 13.816 159.59 14.068C159.916 14.32 160.374 14.446 160.962 14.446C161.522 14.446 162.002 14.32 162.404 14.068C162.814 13.8067 163.113 13.4334 163.3 12.948L163.524 13.634C163.337 14.1194 163.01 14.5067 162.544 14.796C162.086 15.0854 161.508 15.23 160.808 15.23ZM176.177 7.74003C176.775 7.74003 177.293 7.8567 177.731 8.09003C178.179 8.31403 178.525 8.65937 178.767 9.12603C179.019 9.5927 179.145 10.1807 179.145 10.89V15.16H178.151V10.988C178.151 10.2134 177.965 9.63003 177.591 9.23803C177.227 8.8367 176.709 8.63603 176.037 8.63603C175.533 8.63603 175.095 8.74337 174.721 8.95803C174.357 9.16337 174.073 9.4667 173.867 9.86803C173.671 10.26 173.573 10.736 173.573 11.296V15.16H172.579V10.988C172.579 10.2134 172.393 9.63003 172.019 9.23803C171.646 8.8367 171.123 8.63603 170.451 8.63603C169.957 8.63603 169.523 8.74337 169.149 8.95803C168.776 9.16337 168.487 9.4667 168.281 9.86803C168.085 10.26 167.987 10.736 167.987 11.296V15.16H166.993V7.81003H167.945V9.79803L167.791 9.44803C168.015 8.91603 168.375 8.5007 168.869 8.20203C169.373 7.89403 169.966 7.74003 170.647 7.74003C171.366 7.74003 171.977 7.92203 172.481 8.28603C172.985 8.6407 173.312 9.17737 173.461 9.89603L173.069 9.74203C173.284 9.1447 173.662 8.66403 174.203 8.30003C174.754 7.9267 175.412 7.74003 176.177 7.74003ZM184.963 15.23C184.198 15.23 183.526 15.0714 182.947 14.754C182.368 14.4274 181.916 13.984 181.589 13.424C181.262 12.8547 181.099 12.206 181.099 11.478C181.099 10.75 181.253 10.106 181.561 9.54603C181.878 8.98603 182.308 8.54737 182.849 8.23003C183.4 7.90337 184.016 7.74003 184.697 7.74003C185.388 7.74003 185.999 7.8987 186.531 8.21603C187.072 8.52403 187.497 8.9627 187.805 9.53203C188.113 10.092 188.267 10.7407 188.267 11.478C188.267 11.5247 188.262 11.576 188.253 11.632C188.253 11.6787 188.253 11.73 188.253 11.786H181.855V11.044H187.721L187.329 11.338C187.329 10.806 187.212 10.3347 186.979 9.92403C186.755 9.50403 186.447 9.17737 186.055 8.94403C185.663 8.7107 185.21 8.59403 184.697 8.59403C184.193 8.59403 183.74 8.7107 183.339 8.94403C182.938 9.17737 182.625 9.50403 182.401 9.92403C182.177 10.344 182.065 10.8247 182.065 11.366V11.52C182.065 12.08 182.186 12.5747 182.429 13.004C182.681 13.424 183.026 13.7554 183.465 13.998C183.913 14.2314 184.422 14.348 184.991 14.348C185.439 14.348 185.854 14.2687 186.237 14.11C186.629 13.9514 186.965 13.7087 187.245 13.382L187.805 14.026C187.478 14.418 187.068 14.7167 186.573 14.922C186.088 15.1274 185.551 15.23 184.963 15.23ZM192.614 15.23C191.924 15.23 191.392 15.0434 191.018 14.67C190.645 14.2967 190.458 13.7694 190.458 13.088V6.18603H191.452V13.032C191.452 13.4614 191.56 13.7927 191.774 14.026C191.998 14.2594 192.316 14.376 192.726 14.376C193.165 14.376 193.529 14.25 193.818 13.998L194.168 14.712C193.972 14.8894 193.734 15.02 193.454 15.104C193.184 15.188 192.904 15.23 192.614 15.23ZM189.142 8.63603V7.81003H193.692V8.63603H189.142ZM202.694 15.23C201.966 15.23 201.313 15.0714 200.734 14.754C200.165 14.4274 199.717 13.984 199.39 13.424C199.063 12.8547 198.9 12.206 198.9 11.478C198.9 10.7407 199.063 10.092 199.39 9.53203C199.717 8.97203 200.165 8.53337 200.734 8.21603C201.313 7.8987 201.966 7.74003 202.694 7.74003C203.319 7.74003 203.884 7.86137 204.388 8.10403C204.892 8.3467 205.289 8.7107 205.578 9.19603L204.836 9.70003C204.584 9.3267 204.271 9.05137 203.898 8.87403C203.525 8.6967 203.119 8.60803 202.68 8.60803C202.157 8.60803 201.686 8.72937 201.266 8.97203C200.846 9.20537 200.515 9.5367 200.272 9.96603C200.029 10.3954 199.908 10.8994 199.908 11.478C199.908 12.0567 200.029 12.5607 200.272 12.99C200.515 13.4194 200.846 13.7554 201.266 13.998C201.686 14.2314 202.157 14.348 202.68 14.348C203.119 14.348 203.525 14.2594 203.898 14.082C204.271 13.9047 204.584 13.634 204.836 13.27L205.578 13.774C205.289 14.25 204.892 14.614 204.388 14.866C203.884 15.1087 203.319 15.23 202.694 15.23ZM210.403 15.23C209.694 15.23 209.055 15.0714 208.485 14.754C207.925 14.4274 207.482 13.984 207.155 13.424C206.829 12.8547 206.665 12.206 206.665 11.478C206.665 10.7407 206.829 10.092 207.155 9.53203C207.482 8.97203 207.925 8.53337 208.485 8.21603C209.045 7.8987 209.685 7.74003 210.403 7.74003C211.131 7.74003 211.775 7.8987 212.335 8.21603C212.905 8.53337 213.348 8.97203 213.665 9.53203C213.992 10.092 214.155 10.7407 214.155 11.478C214.155 12.206 213.992 12.8547 213.665 13.424C213.348 13.984 212.905 14.4274 212.335 14.754C211.766 15.0714 211.122 15.23 210.403 15.23ZM210.403 14.348C210.935 14.348 211.407 14.2314 211.817 13.998C212.228 13.7554 212.55 13.4194 212.783 12.99C213.026 12.5514 213.147 12.0474 213.147 11.478C213.147 10.8994 213.026 10.3954 212.783 9.96603C212.55 9.5367 212.228 9.20537 211.817 8.97203C211.407 8.72937 210.94 8.60803 210.417 8.60803C209.895 8.60803 209.428 8.72937 209.017 8.97203C208.607 9.20537 208.28 9.5367 208.037 9.96603C207.795 10.3954 207.673 10.8994 207.673 11.478C207.673 12.0474 207.795 12.5514 208.037 12.99C208.28 13.4194 208.607 13.7554 209.017 13.998C209.428 14.2314 209.89 14.348 210.403 14.348ZM219.937 7.74003C220.534 7.74003 221.057 7.8567 221.505 8.09003C221.962 8.31403 222.317 8.65937 222.569 9.12603C222.83 9.5927 222.961 10.1807 222.961 10.89V15.16H221.967V10.988C221.967 10.2134 221.771 9.63003 221.379 9.23803C220.996 8.8367 220.455 8.63603 219.755 8.63603C219.232 8.63603 218.775 8.74337 218.383 8.95803C218 9.16337 217.701 9.4667 217.487 9.86803C217.281 10.26 217.179 10.736 217.179 11.296V15.16H216.185V7.81003H217.137V9.82603L216.983 9.44803C217.216 8.91603 217.589 8.5007 218.103 8.20203C218.616 7.89403 219.227 7.74003 219.937 7.74003ZM227.62 15.23C227.013 15.23 226.439 15.146 225.898 14.978C225.356 14.8007 224.932 14.5814 224.624 14.32L225.072 13.536C225.37 13.76 225.753 13.956 226.22 14.124C226.686 14.2827 227.176 14.362 227.69 14.362C228.39 14.362 228.894 14.2547 229.202 14.04C229.51 13.816 229.664 13.522 229.664 13.158C229.664 12.8874 229.575 12.6774 229.398 12.528C229.23 12.3694 229.006 12.2527 228.726 12.178C228.446 12.094 228.133 12.024 227.788 11.968C227.442 11.912 227.097 11.8467 226.752 11.772C226.416 11.6974 226.108 11.59 225.828 11.45C225.548 11.3007 225.319 11.1 225.142 10.848C224.974 10.596 224.89 10.26 224.89 9.84003C224.89 9.4387 225.002 9.07937 225.226 8.76203C225.45 8.4447 225.776 8.19737 226.206 8.02003C226.644 7.83337 227.176 7.74003 227.802 7.74003C228.278 7.74003 228.754 7.80537 229.23 7.93603C229.706 8.05737 230.098 8.2207 230.406 8.42603L229.972 9.22403C229.645 9.00003 229.295 8.84137 228.922 8.74803C228.548 8.64537 228.175 8.59403 227.802 8.59403C227.139 8.59403 226.649 8.7107 226.332 8.94403C226.024 9.16803 225.87 9.45737 225.87 9.81203C225.87 10.092 225.954 10.3114 226.122 10.47C226.299 10.6287 226.528 10.7547 226.808 10.848C227.097 10.932 227.41 11.002 227.746 11.058C228.091 11.114 228.432 11.184 228.768 11.268C229.113 11.3427 229.426 11.45 229.706 11.59C229.995 11.7207 230.224 11.912 230.392 12.164C230.569 12.4067 230.658 12.7287 230.658 13.13C230.658 13.5594 230.536 13.9327 230.294 14.25C230.06 14.558 229.715 14.8007 229.258 14.978C228.81 15.146 228.264 15.23 227.62 15.23ZM235.604 15.23C234.838 15.23 234.166 15.0714 233.588 14.754C233.009 14.4274 232.556 13.984 232.23 13.424C231.903 12.8547 231.74 12.206 231.74 11.478C231.74 10.75 231.894 10.106 232.202 9.54603C232.519 8.98603 232.948 8.54737 233.49 8.23003C234.04 7.90337 234.656 7.74003 235.338 7.74003C236.028 7.74003 236.64 7.8987 237.172 8.21603C237.713 8.52403 238.138 8.9627 238.446 9.53203C238.754 10.092 238.908 10.7407 238.908 11.478C238.908 11.5247 238.903 11.576 238.894 11.632C238.894 11.6787 238.894 11.73 238.894 11.786H232.496V11.044H238.362L237.97 11.338C237.97 10.806 237.853 10.3347 237.62 9.92403C237.396 9.50403 237.088 9.17737 236.696 8.94403C236.304 8.7107 235.851 8.59403 235.338 8.59403C234.834 8.59403 234.381 8.7107 233.98 8.94403C233.578 9.17737 233.266 9.50403 233.042 9.92403C232.818 10.344 232.706 10.8247 232.706 11.366V11.52C232.706 12.08 232.827 12.5747 233.07 13.004C233.322 13.424 233.667 13.7554 234.106 13.998C234.554 14.2314 235.062 14.348 235.632 14.348C236.08 14.348 236.495 14.2687 236.878 14.11C237.27 13.9514 237.606 13.7087 237.886 13.382L238.446 14.026C238.119 14.418 237.708 14.7167 237.214 14.922C236.728 15.1274 236.192 15.23 235.604 15.23ZM243.983 15.23C243.255 15.23 242.602 15.0714 242.023 14.754C241.454 14.4274 241.006 13.984 240.679 13.424C240.352 12.8547 240.189 12.206 240.189 11.478C240.189 10.7407 240.352 10.092 240.679 9.53203C241.006 8.97203 241.454 8.53337 242.023 8.21603C242.602 7.8987 243.255 7.74003 243.983 7.74003C244.608 7.74003 245.173 7.86137 245.677 8.10403C246.181 8.3467 246.578 8.7107 246.867 9.19603L246.125 9.70003C245.873 9.3267 245.56 9.05137 245.187 8.87403C244.814 8.6967 244.408 8.60803 243.969 8.60803C243.446 8.60803 242.975 8.72937 242.555 8.97203C242.135 9.20537 241.804 9.5367 241.561 9.96603C241.318 10.3954 241.197 10.8994 241.197 11.478C241.197 12.0567 241.318 12.5607 241.561 12.99C241.804 13.4194 242.135 13.7554 242.555 13.998C242.975 14.2314 243.446 14.348 243.969 14.348C244.408 14.348 244.814 14.2594 245.187 14.082C245.56 13.9047 245.873 13.634 246.125 13.27L246.867 13.774C246.578 14.25 246.181 14.614 245.677 14.866C245.173 15.1087 244.608 15.23 243.983 15.23ZM251.226 15.23C250.535 15.23 250.003 15.0434 249.63 14.67C249.256 14.2967 249.07 13.7694 249.07 13.088V6.18603H250.064V13.032C250.064 13.4614 250.171 13.7927 250.386 14.026C250.61 14.2594 250.927 14.376 251.338 14.376C251.776 14.376 252.14 14.25 252.43 13.998L252.78 14.712C252.584 14.8894 252.346 15.02 252.066 15.104C251.795 15.188 251.515 15.23 251.226 15.23ZM247.754 8.63603V7.81003H252.304V8.63603H247.754ZM257.451 15.23C256.686 15.23 256.014 15.0714 255.435 14.754C254.857 14.4274 254.404 13.984 254.077 13.424C253.751 12.8547 253.587 12.206 253.587 11.478C253.587 10.75 253.741 10.106 254.049 9.54603C254.367 8.98603 254.796 8.54737 255.337 8.23003C255.888 7.90337 256.504 7.74003 257.185 7.74003C257.876 7.74003 258.487 7.8987 259.019 8.21603C259.561 8.52403 259.985 8.9627 260.293 9.53203C260.601 10.092 260.755 10.7407 260.755 11.478C260.755 11.5247 260.751 11.576 260.741 11.632C260.741 11.6787 260.741 11.73 260.741 11.786H254.343V11.044H260.209L259.817 11.338C259.817 10.806 259.701 10.3347 259.467 9.92403C259.243 9.50403 258.935 9.17737 258.543 8.94403C258.151 8.7107 257.699 8.59403 257.185 8.59403C256.681 8.59403 256.229 8.7107 255.827 8.94403C255.426 9.17737 255.113 9.50403 254.889 9.92403C254.665 10.344 254.553 10.8247 254.553 11.366V11.52C254.553 12.08 254.675 12.5747 254.917 13.004C255.169 13.424 255.515 13.7554 255.953 13.998C256.401 14.2314 256.91 14.348 257.479 14.348C257.927 14.348 258.343 14.2687 258.725 14.11C259.117 13.9514 259.453 13.7087 259.733 13.382L260.293 14.026C259.967 14.418 259.556 14.7167 259.061 14.922C258.576 15.1274 258.039 15.23 257.451 15.23ZM268.767 15.23C268.076 15.23 267.544 15.0434 267.171 14.67C266.797 14.2967 266.611 13.7694 266.611 13.088V6.18603H267.605V13.032C267.605 13.4614 267.712 13.7927 267.927 14.026C268.151 14.2594 268.468 14.376 268.879 14.376C269.317 14.376 269.681 14.25 269.971 13.998L270.321 14.712C270.125 14.8894 269.887 15.02 269.607 15.104C269.336 15.188 269.056 15.23 268.767 15.23ZM265.295 8.63603V7.81003H269.845V8.63603H265.295ZM275.168 15.23C274.543 15.23 273.997 15.1134 273.53 14.88C273.063 14.6467 272.699 14.2967 272.438 13.83C272.186 13.3634 272.06 12.78 272.06 12.08V7.81003H273.054V11.968C273.054 12.752 273.245 13.3447 273.628 13.746C274.02 14.138 274.566 14.334 275.266 14.334C275.779 14.334 276.223 14.2314 276.596 14.026C276.979 13.8114 277.268 13.5034 277.464 13.102C277.669 12.7007 277.772 12.22 277.772 11.66V7.81003H278.766V15.16H277.814V13.144L277.968 13.508C277.735 14.0494 277.371 14.474 276.876 14.782C276.391 15.0807 275.821 15.23 275.168 15.23ZM281.536 15.16V7.81003H282.488V9.81203L282.39 9.46203C282.596 8.90203 282.941 8.47737 283.426 8.18803C283.912 7.88937 284.514 7.74003 285.232 7.74003V8.70603C285.195 8.70603 285.158 8.70603 285.12 8.70603C285.083 8.6967 285.046 8.69203 285.008 8.69203C284.234 8.69203 283.627 8.93003 283.188 9.40603C282.75 9.8727 282.53 10.54 282.53 11.408V15.16H281.536ZM289.974 15.23C289.264 15.23 288.625 15.0714 288.056 14.754C287.496 14.4274 287.052 13.984 286.726 13.424C286.399 12.8547 286.236 12.206 286.236 11.478C286.236 10.7407 286.399 10.092 286.726 9.53203C287.052 8.97203 287.496 8.53337 288.056 8.21603C288.616 7.8987 289.255 7.74003 289.974 7.74003C290.702 7.74003 291.346 7.8987 291.906 8.21603C292.475 8.53337 292.918 8.97203 293.236 9.53203C293.562 10.092 293.726 10.7407 293.726 11.478C293.726 12.206 293.562 12.8547 293.236 13.424C292.918 13.984 292.475 14.4274 291.906 14.754C291.336 15.0714 290.692 15.23 289.974 15.23ZM289.974 14.348C290.506 14.348 290.977 14.2314 291.388 13.998C291.798 13.7554 292.12 13.4194 292.354 12.99C292.596 12.5514 292.718 12.0474 292.718 11.478C292.718 10.8994 292.596 10.3954 292.354 9.96603C292.12 9.5367 291.798 9.20537 291.388 8.97203C290.977 8.72937 290.51 8.60803 289.988 8.60803C289.465 8.60803 288.998 8.72937 288.588 8.97203C288.177 9.20537 287.85 9.5367 287.608 9.96603C287.365 10.3954 287.244 10.8994 287.244 11.478C287.244 12.0474 287.365 12.5514 287.608 12.99C287.85 13.4194 288.177 13.7554 288.588 13.998C288.998 14.2314 289.46 14.348 289.974 14.348ZM295.755 15.16V4.77203H296.749V15.16H295.755ZM302.637 15.23C301.872 15.23 301.2 15.0714 300.621 14.754C300.042 14.4274 299.59 13.984 299.263 13.424C298.936 12.8547 298.773 12.206 298.773 11.478C298.773 10.75 298.927 10.106 299.235 9.54603C299.552 8.98603 299.982 8.54737 300.523 8.23003C301.074 7.90337 301.69 7.74003 302.371 7.74003C303.062 7.74003 303.673 7.8987 304.205 8.21603C304.746 8.52403 305.171 8.9627 305.479 9.53203C305.787 10.092 305.941 10.7407 305.941 11.478C305.941 11.5247 305.936 11.576 305.927 11.632C305.927 11.6787 305.927 11.73 305.927 11.786H299.529V11.044H305.395L305.003 11.338C305.003 10.806 304.886 10.3347 304.653 9.92403C304.429 9.50403 304.121 9.17737 303.729 8.94403C303.337 8.7107 302.884 8.59403 302.371 8.59403C301.867 8.59403 301.414 8.7107 301.013 8.94403C300.612 9.17737 300.299 9.50403 300.075 9.92403C299.851 10.344 299.739 10.8247 299.739 11.366V11.52C299.739 12.08 299.86 12.5747 300.103 13.004C300.355 13.424 300.7 13.7554 301.139 13.998C301.587 14.2314 302.096 14.348 302.665 14.348C303.113 14.348 303.528 14.2687 303.911 14.11C304.303 13.9514 304.639 13.7087 304.919 13.382L305.479 14.026C305.152 14.418 304.742 14.7167 304.247 14.922C303.762 15.1274 303.225 15.23 302.637 15.23ZM5.992 35.16V33.536L5.95 33.27V30.554C5.95 29.9287 5.77267 29.448 5.418 29.112C5.07267 28.776 4.55467 28.608 3.864 28.608C3.388 28.608 2.93533 28.6874 2.506 28.846C2.07667 29.0047 1.71267 29.2147 1.414 29.476L0.966 28.734C1.33933 28.4167 1.78733 28.174 2.31 28.006C2.83267 27.8287 3.38333 27.74 3.962 27.74C4.914 27.74 5.64667 27.978 6.16 28.454C6.68267 28.9207 6.944 29.6347 6.944 30.596V35.16H5.992ZM3.458 35.23C2.90733 35.23 2.42667 35.1414 2.016 34.964C1.61467 34.7774 1.30667 34.5254 1.092 34.208C0.877333 33.8814 0.77 33.508 0.77 33.088C0.77 32.7054 0.858667 32.36 1.036 32.052C1.22267 31.7347 1.52133 31.4827 1.932 31.296C2.352 31.1 2.912 31.002 3.612 31.002H6.146V31.744H3.64C2.93067 31.744 2.436 31.87 2.156 32.122C1.88533 32.374 1.75 32.6867 1.75 33.06C1.75 33.48 1.91333 33.816 2.24 34.068C2.56667 34.32 3.024 34.446 3.612 34.446C4.172 34.446 4.65267 34.32 5.054 34.068C5.46467 33.8067 5.76333 33.4334 5.95 32.948L6.174 33.634C5.98733 34.1194 5.66067 34.5067 5.194 34.796C4.73667 35.0854 4.158 35.23 3.458 35.23ZM12.5698 35.23C11.8698 35.23 11.2398 35.0714 10.6798 34.754C10.1291 34.4367 9.69515 33.998 9.37781 33.438C9.06048 32.8687 8.90181 32.2154 8.90181 31.478C8.90181 30.7314 9.06048 30.078 9.37781 29.518C9.69515 28.958 10.1291 28.524 10.6798 28.216C11.2398 27.8987 11.8698 27.74 12.5698 27.74C13.2138 27.74 13.7878 27.8847 14.2918 28.174C14.8051 28.4634 15.2111 28.888 15.5098 29.448C15.8178 29.9987 15.9718 30.6754 15.9718 31.478C15.9718 32.2714 15.8225 32.948 15.5238 33.508C15.2251 34.068 14.8191 34.4974 14.3058 34.796C13.8018 35.0854 13.2231 35.23 12.5698 35.23ZM12.6398 34.348C13.1625 34.348 13.6291 34.2314 14.0398 33.998C14.4598 33.7554 14.7865 33.4194 15.0198 32.99C15.2625 32.5514 15.3838 32.0474 15.3838 31.478C15.3838 30.8994 15.2625 30.3954 15.0198 29.966C14.7865 29.5367 14.4598 29.2054 14.0398 28.972C13.6291 28.7294 13.1625 28.608 12.6398 28.608C12.1265 28.608 11.6645 28.7294 11.2538 28.972C10.8431 29.2054 10.5165 29.5367 10.2738 29.966C10.0311 30.3954 9.90981 30.8994 9.90981 31.478C9.90981 32.0474 10.0311 32.5514 10.2738 32.99C10.5165 33.4194 10.8431 33.7554 11.2538 33.998C11.6645 34.2314 12.1265 34.348 12.6398 34.348ZM15.4118 35.16V32.948L15.5098 31.464L15.3698 29.98V24.772H16.3638V35.16H15.4118ZM19.1321 35.16V27.81H20.1261V35.16H19.1321ZM19.6361 26.186C19.4308 26.186 19.2581 26.116 19.1181 25.976C18.9781 25.836 18.9081 25.668 18.9081 25.472C18.9081 25.276 18.9781 25.1127 19.1181 24.982C19.2581 24.842 19.4308 24.772 19.6361 24.772C19.8414 24.772 20.0141 24.8374 20.1541 24.968C20.2941 25.0987 20.3641 25.262 20.3641 25.458C20.3641 25.6634 20.2941 25.836 20.1541 25.976C20.0234 26.116 19.8508 26.186 19.6361 26.186ZM26.6859 35.23C26.0512 35.23 25.4772 35.0854 24.9639 34.796C24.4505 34.4974 24.0399 34.0727 23.7319 33.522C23.4332 32.962 23.2839 32.2807 23.2839 31.478C23.2839 30.6754 23.4332 29.9987 23.7319 29.448C24.0305 28.888 24.4365 28.4634 24.9499 28.174C25.4632 27.8847 26.0419 27.74 26.6859 27.74C27.3859 27.74 28.0112 27.8987 28.5619 28.216C29.1219 28.524 29.5605 28.9627 29.8779 29.532C30.1952 30.092 30.3539 30.7407 30.3539 31.478C30.3539 32.2247 30.1952 32.878 29.8779 33.438C29.5605 33.998 29.1219 34.4367 28.5619 34.754C28.0112 35.0714 27.3859 35.23 26.6859 35.23ZM22.8919 37.876V27.81H23.8439V30.022L23.7459 31.492L23.8859 32.976V37.876H22.8919ZM26.6159 34.348C27.1385 34.348 27.6052 34.2314 28.0159 33.998C28.4265 33.7554 28.7532 33.4194 28.9959 32.99C29.2385 32.5514 29.3599 32.0474 29.3599 31.478C29.3599 30.9087 29.2385 30.4094 28.9959 29.98C28.7532 29.5507 28.4265 29.2147 28.0159 28.972C27.6052 28.7294 27.1385 28.608 26.6159 28.608C26.0932 28.608 25.6219 28.7294 25.2019 28.972C24.7912 29.2147 24.4645 29.5507 24.2219 29.98C23.9885 30.4094 23.8719 30.9087 23.8719 31.478C23.8719 32.0474 23.9885 32.5514 24.2219 32.99C24.4645 33.4194 24.7912 33.7554 25.2019 33.998C25.6219 34.2314 26.0932 34.348 26.6159 34.348ZM32.3801 35.16V27.81H33.3741V35.16H32.3801ZM32.8841 26.186C32.6788 26.186 32.5061 26.116 32.3661 25.976C32.2261 25.836 32.1561 25.668 32.1561 25.472C32.1561 25.276 32.2261 25.1127 32.3661 24.982C32.5061 24.842 32.6788 24.772 32.8841 24.772C33.0895 24.772 33.2621 24.8374 33.4021 24.968C33.5421 25.0987 33.6121 25.262 33.6121 25.458C33.6121 25.6634 33.5421 25.836 33.4021 25.976C33.2715 26.116 33.0988 26.186 32.8841 26.186ZM38.1139 35.23C37.5072 35.23 36.9332 35.146 36.3919 34.978C35.8506 34.8007 35.4259 34.5814 35.1179 34.32L35.5659 33.536C35.8646 33.76 36.2472 33.956 36.7139 34.124C37.1806 34.2827 37.6706 34.362 38.1839 34.362C38.8839 34.362 39.3879 34.2547 39.6959 34.04C40.0039 33.816 40.1579 33.522 40.1579 33.158C40.1579 32.8874 40.0692 32.6774 39.8919 32.528C39.7239 32.3694 39.4999 32.2527 39.2199 32.178C38.9399 32.094 38.6272 32.024 38.2819 31.968C37.9366 31.912 37.5912 31.8467 37.2459 31.772C36.9099 31.6974 36.6019 31.59 36.3219 31.45C36.0419 31.3007 35.8132 31.1 35.6359 30.848C35.4679 30.596 35.3839 30.26 35.3839 29.84C35.3839 29.4387 35.4959 29.0794 35.7199 28.762C35.9439 28.4447 36.2706 28.1974 36.6999 28.02C37.1386 27.8334 37.6706 27.74 38.2959 27.74C38.7719 27.74 39.2479 27.8054 39.7239 27.936C40.1999 28.0574 40.5919 28.2207 40.8999 28.426L40.4659 29.224C40.1392 29 39.7892 28.8414 39.4159 28.748C39.0426 28.6454 38.6692 28.594 38.2959 28.594C37.6332 28.594 37.1432 28.7107 36.8259 28.944C36.5179 29.168 36.3639 29.4574 36.3639 29.812C36.3639 30.092 36.4479 30.3114 36.6159 30.47C36.7932 30.6287 37.0219 30.7547 37.3019 30.848C37.5912 30.932 37.9039 31.002 38.2399 31.058C38.5852 31.114 38.9259 31.184 39.2619 31.268C39.6072 31.3427 39.9199 31.45 40.1999 31.59C40.4892 31.7207 40.7179 31.912 40.8859 32.164C41.0632 32.4067 41.1519 32.7287 41.1519 33.13C41.1519 33.5594 41.0306 33.9327 40.7879 34.25C40.5546 34.558 40.2092 34.8007 39.7519 34.978C39.3039 35.146 38.7579 35.23 38.1139 35.23ZM46.0278 35.23C45.2998 35.23 44.6465 35.0714 44.0678 34.754C43.4985 34.4274 43.0505 33.984 42.7238 33.424C42.3972 32.8547 42.2338 32.206 42.2338 31.478C42.2338 30.7407 42.3972 30.092 42.7238 29.532C43.0505 28.972 43.4985 28.5334 44.0678 28.216C44.6465 27.8987 45.2998 27.74 46.0278 27.74C46.6532 27.74 47.2178 27.8614 47.7218 28.104C48.2258 28.3467 48.6225 28.7107 48.9118 29.196L48.1698 29.7C47.9178 29.3267 47.6052 29.0514 47.2318 28.874C46.8585 28.6967 46.4525 28.608 46.0138 28.608C45.4912 28.608 45.0198 28.7294 44.5998 28.972C44.1798 29.2054 43.8485 29.5367 43.6058 29.966C43.3632 30.3954 43.2418 30.8994 43.2418 31.478C43.2418 32.0567 43.3632 32.5607 43.6058 32.99C43.8485 33.4194 44.1798 33.7554 44.5998 33.998C45.0198 34.2314 45.4912 34.348 46.0138 34.348C46.4525 34.348 46.8585 34.2594 47.2318 34.082C47.6052 33.9047 47.9178 33.634 48.1698 33.27L48.9118 33.774C48.6225 34.25 48.2258 34.614 47.7218 34.866C47.2178 35.1087 46.6532 35.23 46.0278 35.23ZM50.7551 35.16V27.81H51.7491V35.16H50.7551ZM51.2591 26.186C51.0538 26.186 50.8811 26.116 50.7411 25.976C50.6011 25.836 50.5311 25.668 50.5311 25.472C50.5311 25.276 50.6011 25.1127 50.7411 24.982C50.8811 24.842 51.0538 24.772 51.2591 24.772C51.4645 24.772 51.6371 24.8374 51.7771 24.968C51.9171 25.0987 51.9871 25.262 51.9871 25.458C51.9871 25.6634 51.9171 25.836 51.7771 25.976C51.6465 26.116 51.4738 26.186 51.2591 26.186ZM58.2669 27.74C58.8642 27.74 59.3869 27.8567 59.8349 28.09C60.2922 28.314 60.6469 28.6594 60.8989 29.126C61.1602 29.5927 61.2909 30.1807 61.2909 30.89V35.16H60.2969V30.988C60.2969 30.2134 60.1009 29.63 59.7089 29.238C59.3262 28.8367 58.7849 28.636 58.0849 28.636C57.5622 28.636 57.1049 28.7434 56.7129 28.958C56.3302 29.1634 56.0316 29.4667 55.8169 29.868C55.6116 30.26 55.5089 30.736 55.5089 31.296V35.16H54.5149V27.81H55.4669V29.826L55.3129 29.448C55.5462 28.916 55.9196 28.5007 56.4329 28.202C56.9462 27.894 57.5576 27.74 58.2669 27.74ZM67.1118 37.946C66.4398 37.946 65.7958 37.848 65.1798 37.652C64.5638 37.456 64.0645 37.176 63.6818 36.812L64.1858 36.056C64.5312 36.364 64.9558 36.6067 65.4598 36.784C65.9732 36.9707 66.5145 37.064 67.0838 37.064C68.0172 37.064 68.7032 36.8447 69.1418 36.406C69.5805 35.9767 69.7998 35.3047 69.7998 34.39V32.556L69.9398 31.296L69.8418 30.036V27.81H70.7938V34.264C70.7938 35.5334 70.4812 36.462 69.8558 37.05C69.2398 37.6474 68.3252 37.946 67.1118 37.946ZM66.9298 34.88C66.2298 34.88 65.5998 34.7307 65.0398 34.432C64.4798 34.124 64.0365 33.6994 63.7098 33.158C63.3925 32.6167 63.2338 31.996 63.2338 31.296C63.2338 30.596 63.3925 29.98 63.7098 29.448C64.0365 28.9067 64.4798 28.4867 65.0398 28.188C65.5998 27.8894 66.2298 27.74 66.9298 27.74C67.5832 27.74 68.1712 27.8754 68.6938 28.146C69.2165 28.4167 69.6318 28.818 69.9398 29.35C70.2478 29.882 70.4018 30.5307 70.4018 31.296C70.4018 32.0614 70.2478 32.71 69.9398 33.242C69.6318 33.774 69.2165 34.18 68.6938 34.46C68.1712 34.74 67.5832 34.88 66.9298 34.88ZM67.0278 33.998C67.5692 33.998 68.0498 33.886 68.4698 33.662C68.8898 33.4287 69.2212 33.1114 69.4638 32.71C69.7065 32.2994 69.8278 31.828 69.8278 31.296C69.8278 30.764 69.7065 30.2974 69.4638 29.896C69.2212 29.4947 68.8898 29.182 68.4698 28.958C68.0498 28.7247 67.5692 28.608 67.0278 28.608C66.4958 28.608 66.0152 28.7247 65.5858 28.958C65.1658 29.182 64.8345 29.4947 64.5918 29.896C64.3585 30.2974 64.2418 30.764 64.2418 31.296C64.2418 31.828 64.3585 32.2994 64.5918 32.71C64.8345 33.1114 65.1658 33.4287 65.5858 33.662C66.0152 33.886 66.4958 33.998 67.0278 33.998ZM80.3459 35.23C79.5806 35.23 78.9086 35.0714 78.3299 34.754C77.7512 34.4274 77.2986 33.984 76.9719 33.424C76.6452 32.8547 76.4819 32.206 76.4819 31.478C76.4819 30.75 76.6359 30.106 76.9439 29.546C77.2612 28.986 77.6906 28.5474 78.2319 28.23C78.7826 27.9034 79.3986 27.74 80.0799 27.74C80.7706 27.74 81.3819 27.8987 81.9139 28.216C82.4552 28.524 82.8799 28.9627 83.1879 29.532C83.4959 30.092 83.6499 30.7407 83.6499 31.478C83.6499 31.5247 83.6452 31.576 83.6359 31.632C83.6359 31.6787 83.6359 31.73 83.6359 31.786H77.2379V31.044H83.1039L82.7119 31.338C82.7119 30.806 82.5952 30.3347 82.3619 29.924C82.1379 29.504 81.8299 29.1774 81.4379 28.944C81.0459 28.7107 80.5932 28.594 80.0799 28.594C79.5759 28.594 79.1232 28.7107 78.7219 28.944C78.3206 29.1774 78.0079 29.504 77.7839 29.924C77.5599 30.344 77.4479 30.8247 77.4479 31.366V31.52C77.4479 32.08 77.5692 32.5747 77.8119 33.004C78.0639 33.424 78.4092 33.7554 78.8479 33.998C79.2959 34.2314 79.8046 34.348 80.3739 34.348C80.8219 34.348 81.2372 34.2687 81.6199 34.11C82.0119 33.9514 82.3479 33.7087 82.6279 33.382L83.1879 34.026C82.8612 34.418 82.4506 34.7167 81.9559 34.922C81.4706 35.1274 80.9339 35.23 80.3459 35.23ZM85.6731 35.16V24.772H86.6671V35.16H85.6731ZM89.4329 35.16V27.81H90.4269V35.16H89.4329ZM89.9369 26.186C89.7315 26.186 89.5589 26.116 89.4189 25.976C89.2789 25.836 89.2089 25.668 89.2089 25.472C89.2089 25.276 89.2789 25.1127 89.4189 24.982C89.5589 24.842 89.7315 24.772 89.9369 24.772C90.1422 24.772 90.3149 24.8374 90.4549 24.968C90.5949 25.0987 90.6649 25.262 90.6649 25.458C90.6649 25.6634 90.5949 25.836 90.4549 25.976C90.3242 26.116 90.1515 26.186 89.9369 26.186ZM95.5166 35.23C94.826 35.23 94.294 35.0434 93.9206 34.67C93.5473 34.2967 93.3606 33.7694 93.3606 33.088V26.186H94.3546V33.032C94.3546 33.4614 94.462 33.7927 94.6766 34.026C94.9006 34.2594 95.218 34.376 95.6286 34.376C96.0673 34.376 96.4313 34.25 96.7206 33.998L97.0706 34.712C96.8746 34.8894 96.6366 35.02 96.3566 35.104C96.086 35.188 95.806 35.23 95.5166 35.23ZM92.0446 28.636V27.81H96.5946V28.636H92.0446ZM104.518 35.23C103.912 35.23 103.338 35.146 102.796 34.978C102.255 34.8007 101.83 34.5814 101.522 34.32L101.97 33.536C102.269 33.76 102.652 33.956 103.118 34.124C103.585 34.2827 104.075 34.362 104.588 34.362C105.288 34.362 105.792 34.2547 106.1 34.04C106.408 33.816 106.562 33.522 106.562 33.158C106.562 32.8874 106.474 32.6774 106.296 32.528C106.128 32.3694 105.904 32.2527 105.624 32.178C105.344 32.094 105.032 32.024 104.686 31.968C104.341 31.912 103.996 31.8467 103.65 31.772C103.314 31.6974 103.006 31.59 102.726 31.45C102.446 31.3007 102.218 31.1 102.04 30.848C101.872 30.596 101.788 30.26 101.788 29.84C101.788 29.4387 101.9 29.0794 102.124 28.762C102.348 28.4447 102.675 28.1974 103.104 28.02C103.543 27.8334 104.075 27.74 104.7 27.74C105.176 27.74 105.652 27.8054 106.128 27.936C106.604 28.0574 106.996 28.2207 107.304 28.426L106.87 29.224C106.544 29 106.194 28.8414 105.82 28.748C105.447 28.6454 105.074 28.594 104.7 28.594C104.038 28.594 103.548 28.7107 103.23 28.944C102.922 29.168 102.768 29.4574 102.768 29.812C102.768 30.092 102.852 30.3114 103.02 30.47C103.198 30.6287 103.426 30.7547 103.706 30.848C103.996 30.932 104.308 31.002 104.644 31.058C104.99 31.114 105.33 31.184 105.666 31.268C106.012 31.3427 106.324 31.45 106.604 31.59C106.894 31.7207 107.122 31.912 107.29 32.164C107.468 32.4067 107.556 32.7287 107.556 33.13C107.556 33.5594 107.435 33.9327 107.192 34.25C106.959 34.558 106.614 34.8007 106.156 34.978C105.708 35.146 105.162 35.23 104.518 35.23ZM112.502 35.23C111.737 35.23 111.065 35.0714 110.486 34.754C109.907 34.4274 109.455 33.984 109.128 33.424C108.801 32.8547 108.638 32.206 108.638 31.478C108.638 30.75 108.792 30.106 109.1 29.546C109.417 28.986 109.847 28.5474 110.388 28.23C110.939 27.9034 111.555 27.74 112.236 27.74C112.927 27.74 113.538 27.8987 114.07 28.216C114.611 28.524 115.036 28.9627 115.344 29.532C115.652 30.092 115.806 30.7407 115.806 31.478C115.806 31.5247 115.801 31.576 115.792 31.632C115.792 31.6787 115.792 31.73 115.792 31.786H109.394V31.044H115.26L114.868 31.338C114.868 30.806 114.751 30.3347 114.518 29.924C114.294 29.504 113.986 29.1774 113.594 28.944C113.202 28.7107 112.749 28.594 112.236 28.594C111.732 28.594 111.279 28.7107 110.878 28.944C110.477 29.1774 110.164 29.504 109.94 29.924C109.716 30.344 109.604 30.8247 109.604 31.366V31.52C109.604 32.08 109.725 32.5747 109.968 33.004C110.22 33.424 110.565 33.7554 111.004 33.998C111.452 34.2314 111.961 34.348 112.53 34.348C112.978 34.348 113.393 34.2687 113.776 34.11C114.168 33.9514 114.504 33.7087 114.784 33.382L115.344 34.026C115.017 34.418 114.607 34.7167 114.112 34.922C113.627 35.1274 113.09 35.23 112.502 35.23ZM127.013 27.74C127.611 27.74 128.129 27.8567 128.567 28.09C129.015 28.314 129.361 28.6594 129.603 29.126C129.855 29.5927 129.981 30.1807 129.981 30.89V35.16H128.987V30.988C128.987 30.2134 128.801 29.63 128.427 29.238C128.063 28.8367 127.545 28.636 126.873 28.636C126.369 28.636 125.931 28.7434 125.557 28.958C125.193 29.1634 124.909 29.4667 124.703 29.868C124.507 30.26 124.409 30.736 124.409 31.296V35.16H123.415V30.988C123.415 30.2134 123.229 29.63 122.855 29.238C122.482 28.8367 121.959 28.636 121.287 28.636C120.793 28.636 120.359 28.7434 119.985 28.958C119.612 29.1634 119.323 29.4667 119.117 29.868C118.921 30.26 118.823 30.736 118.823 31.296V35.16H117.829V27.81H118.781V29.798L118.627 29.448C118.851 28.916 119.211 28.5007 119.705 28.202C120.209 27.894 120.802 27.74 121.483 27.74C122.202 27.74 122.813 27.922 123.317 28.286C123.821 28.6407 124.148 29.1774 124.297 29.896L123.905 29.742C124.12 29.1447 124.498 28.664 125.039 28.3C125.59 27.9267 126.248 27.74 127.013 27.74ZM136.471 35.23C135.836 35.23 135.262 35.0854 134.749 34.796C134.236 34.4974 133.825 34.0727 133.517 33.522C133.218 32.962 133.069 32.2807 133.069 31.478C133.069 30.6754 133.218 29.9987 133.517 29.448C133.816 28.888 134.222 28.4634 134.735 28.174C135.248 27.8847 135.827 27.74 136.471 27.74C137.171 27.74 137.796 27.8987 138.347 28.216C138.907 28.524 139.346 28.9627 139.663 29.532C139.98 30.092 140.139 30.7407 140.139 31.478C140.139 32.2247 139.98 32.878 139.663 33.438C139.346 33.998 138.907 34.4367 138.347 34.754C137.796 35.0714 137.171 35.23 136.471 35.23ZM132.677 37.876V27.81H133.629V30.022L133.531 31.492L133.671 32.976V37.876H132.677ZM136.401 34.348C136.924 34.348 137.39 34.2314 137.801 33.998C138.212 33.7554 138.538 33.4194 138.781 32.99C139.024 32.5514 139.145 32.0474 139.145 31.478C139.145 30.9087 139.024 30.4094 138.781 29.98C138.538 29.5507 138.212 29.2147 137.801 28.972C137.39 28.7294 136.924 28.608 136.401 28.608C135.878 28.608 135.407 28.7294 134.987 28.972C134.576 29.2147 134.25 29.5507 134.007 29.98C133.774 30.4094 133.657 30.9087 133.657 31.478C133.657 32.0474 133.774 32.5514 134.007 32.99C134.25 33.4194 134.576 33.7554 134.987 33.998C135.407 34.2314 135.878 34.348 136.401 34.348ZM145.287 35.23C144.522 35.23 143.85 35.0714 143.271 34.754C142.693 34.4274 142.24 33.984 141.913 33.424C141.587 32.8547 141.423 32.206 141.423 31.478C141.423 30.75 141.577 30.106 141.885 29.546C142.203 28.986 142.632 28.5474 143.173 28.23C143.724 27.9034 144.34 27.74 145.021 27.74C145.712 27.74 146.323 27.8987 146.855 28.216C147.397 28.524 147.821 28.9627 148.129 29.532C148.437 30.092 148.591 30.7407 148.591 31.478C148.591 31.5247 148.587 31.576 148.577 31.632C148.577 31.6787 148.577 31.73 148.577 31.786H142.179V31.044H148.045L147.653 31.338C147.653 30.806 147.537 30.3347 147.303 29.924C147.079 29.504 146.771 29.1774 146.379 28.944C145.987 28.7107 145.535 28.594 145.021 28.594C144.517 28.594 144.065 28.7107 143.663 28.944C143.262 29.1774 142.949 29.504 142.725 29.924C142.501 30.344 142.389 30.8247 142.389 31.366V31.52C142.389 32.08 142.511 32.5747 142.753 33.004C143.005 33.424 143.351 33.7554 143.789 33.998C144.237 34.2314 144.746 34.348 145.315 34.348C145.763 34.348 146.179 34.2687 146.561 34.11C146.953 33.9514 147.289 33.7087 147.569 33.382L148.129 34.026C147.803 34.418 147.392 34.7167 146.897 34.922C146.412 35.1274 145.875 35.23 145.287 35.23ZM150.615 35.16V27.81H151.567V29.812L151.469 29.462C151.674 28.902 152.019 28.4774 152.505 28.188C152.99 27.8894 153.592 27.74 154.311 27.74V28.706C154.273 28.706 154.236 28.706 154.199 28.706C154.161 28.6967 154.124 28.692 154.087 28.692C153.312 28.692 152.705 28.93 152.267 29.406C151.828 29.8727 151.609 30.54 151.609 31.408V35.16H150.615ZM162.824 35.23C162.124 35.23 161.494 35.0714 160.934 34.754C160.383 34.4367 159.949 33.998 159.632 33.438C159.314 32.8687 159.156 32.2154 159.156 31.478C159.156 30.7314 159.314 30.078 159.632 29.518C159.949 28.958 160.383 28.524 160.934 28.216C161.494 27.8987 162.124 27.74 162.824 27.74C163.468 27.74 164.042 27.8847 164.546 28.174C165.059 28.4634 165.465 28.888 165.764 29.448C166.072 29.9987 166.226 30.6754 166.226 31.478C166.226 32.2714 166.076 32.948 165.778 33.508C165.479 34.068 165.073 34.4974 164.56 34.796C164.056 35.0854 163.477 35.23 162.824 35.23ZM162.894 34.348C163.416 34.348 163.883 34.2314 164.294 33.998C164.714 33.7554 165.04 33.4194 165.274 32.99C165.516 32.5514 165.638 32.0474 165.638 31.478C165.638 30.8994 165.516 30.3954 165.274 29.966C165.04 29.5367 164.714 29.2054 164.294 28.972C163.883 28.7294 163.416 28.608 162.894 28.608C162.38 28.608 161.918 28.7294 161.508 28.972C161.097 29.2054 160.77 29.5367 160.528 29.966C160.285 30.3954 160.164 30.8994 160.164 31.478C160.164 32.0474 160.285 32.5514 160.528 32.99C160.77 33.4194 161.097 33.7554 161.508 33.998C161.918 34.2314 162.38 34.348 162.894 34.348ZM165.666 35.16V32.948L165.764 31.464L165.624 29.98V24.772H166.618V35.16H165.666ZM173.992 35.16V33.536L173.95 33.27V30.554C173.95 29.9287 173.773 29.448 173.418 29.112C173.073 28.776 172.555 28.608 171.864 28.608C171.388 28.608 170.935 28.6874 170.506 28.846C170.077 29.0047 169.713 29.2147 169.414 29.476L168.966 28.734C169.339 28.4167 169.787 28.174 170.31 28.006C170.833 27.8287 171.383 27.74 171.962 27.74C172.914 27.74 173.647 27.978 174.16 28.454C174.683 28.9207 174.944 29.6347 174.944 30.596V35.16H173.992ZM171.458 35.23C170.907 35.23 170.427 35.1414 170.016 34.964C169.615 34.7774 169.307 34.5254 169.092 34.208C168.877 33.8814 168.77 33.508 168.77 33.088C168.77 32.7054 168.859 32.36 169.036 32.052C169.223 31.7347 169.521 31.4827 169.932 31.296C170.352 31.1 170.912 31.002 171.612 31.002H174.146V31.744H171.64C170.931 31.744 170.436 31.87 170.156 32.122C169.885 32.374 169.75 32.6867 169.75 33.06C169.75 33.48 169.913 33.816 170.24 34.068C170.567 34.32 171.024 34.446 171.612 34.446C172.172 34.446 172.653 34.32 173.054 34.068C173.465 33.8067 173.763 33.4334 173.95 32.948L174.174 33.634C173.987 34.1194 173.661 34.5067 173.194 34.796C172.737 35.0854 172.158 35.23 171.458 35.23ZM177.644 35.16V24.772H178.638V35.16H177.644ZM186.01 35.16V33.536L185.968 33.27V30.554C185.968 29.9287 185.79 29.448 185.436 29.112C185.09 28.776 184.572 28.608 183.882 28.608C183.406 28.608 182.953 28.6874 182.524 28.846C182.094 29.0047 181.73 29.2147 181.432 29.476L180.984 28.734C181.357 28.4167 181.805 28.174 182.328 28.006C182.85 27.8287 183.401 27.74 183.98 27.74C184.932 27.74 185.664 27.978 186.178 28.454C186.7 28.9207 186.962 29.6347 186.962 30.596V35.16H186.01ZM183.476 35.23C182.925 35.23 182.444 35.1414 182.034 34.964C181.632 34.7774 181.324 34.5254 181.11 34.208C180.895 33.8814 180.788 33.508 180.788 33.088C180.788 32.7054 180.876 32.36 181.054 32.052C181.24 31.7347 181.539 31.4827 181.95 31.296C182.37 31.1 182.93 31.002 183.63 31.002H186.164V31.744H183.658C182.948 31.744 182.454 31.87 182.174 32.122C181.903 32.374 181.768 32.6867 181.768 33.06C181.768 33.48 181.931 33.816 182.258 34.068C182.584 34.32 183.042 34.446 183.63 34.446C184.19 34.446 184.67 34.32 185.072 34.068C185.482 33.8067 185.781 33.4334 185.968 32.948L186.192 33.634C186.005 34.1194 185.678 34.5067 185.212 34.796C184.754 35.0854 184.176 35.23 183.476 35.23ZM189.661 35.16V27.81H190.613V29.812L190.515 29.462C190.721 28.902 191.066 28.4774 191.551 28.188C192.037 27.8894 192.639 27.74 193.357 27.74V28.706C193.32 28.706 193.283 28.706 193.245 28.706C193.208 28.6967 193.171 28.692 193.133 28.692C192.359 28.692 191.752 28.93 191.313 29.406C190.875 29.8727 190.655 30.54 190.655 31.408V35.16H189.661ZM199.23 35.16V33.536L199.188 33.27V30.554C199.188 29.9287 199.011 29.448 198.656 29.112C198.311 28.776 197.793 28.608 197.102 28.608C196.626 28.608 196.174 28.6874 195.744 28.846C195.315 29.0047 194.951 29.2147 194.652 29.476L194.204 28.734C194.578 28.4167 195.026 28.174 195.548 28.006C196.071 27.8287 196.622 27.74 197.2 27.74C198.152 27.74 198.885 27.978 199.398 28.454C199.921 28.9207 200.182 29.6347 200.182 30.596V35.16H199.23ZM196.696 35.23C196.146 35.23 195.665 35.1414 195.254 34.964C194.853 34.7774 194.545 34.5254 194.33 34.208C194.116 33.8814 194.008 33.508 194.008 33.088C194.008 32.7054 194.097 32.36 194.274 32.052C194.461 31.7347 194.76 31.4827 195.17 31.296C195.59 31.1 196.15 31.002 196.85 31.002H199.384V31.744H196.878C196.169 31.744 195.674 31.87 195.394 32.122C195.124 32.374 194.988 32.6867 194.988 33.06C194.988 33.48 195.152 33.816 195.478 34.068C195.805 34.32 196.262 34.446 196.85 34.446C197.41 34.446 197.891 34.32 198.292 34.068C198.703 33.8067 199.002 33.4334 199.188 32.948L199.412 33.634C199.226 34.1194 198.899 34.5067 198.432 34.796C197.975 35.0854 197.396 35.23 196.696 35.23ZM205.934 35.23C205.206 35.23 204.553 35.0714 203.974 34.754C203.405 34.4274 202.957 33.984 202.63 33.424C202.303 32.8547 202.14 32.206 202.14 31.478C202.14 30.7407 202.303 30.092 202.63 29.532C202.957 28.972 203.405 28.5334 203.974 28.216C204.553 27.8987 205.206 27.74 205.934 27.74C206.559 27.74 207.124 27.8614 207.628 28.104C208.132 28.3467 208.529 28.7107 208.818 29.196L208.076 29.7C207.824 29.3267 207.511 29.0514 207.138 28.874C206.765 28.6967 206.359 28.608 205.92 28.608C205.397 28.608 204.926 28.7294 204.506 28.972C204.086 29.2054 203.755 29.5367 203.512 29.966C203.269 30.3954 203.148 30.8994 203.148 31.478C203.148 32.0567 203.269 32.5607 203.512 32.99C203.755 33.4194 204.086 33.7554 204.506 33.998C204.926 34.2314 205.397 34.348 205.92 34.348C206.359 34.348 206.765 34.2594 207.138 34.082C207.511 33.9047 207.824 33.634 208.076 33.27L208.818 33.774C208.529 34.25 208.132 34.614 207.628 34.866C207.124 35.1087 206.559 35.23 205.934 35.23ZM213.7 35.23C212.972 35.23 212.318 35.0714 211.74 34.754C211.17 34.4274 210.722 33.984 210.396 33.424C210.069 32.8547 209.906 32.206 209.906 31.478C209.906 30.7407 210.069 30.092 210.396 29.532C210.722 28.972 211.17 28.5334 211.74 28.216C212.318 27.8987 212.972 27.74 213.7 27.74C214.325 27.74 214.89 27.8614 215.394 28.104C215.898 28.3467 216.294 28.7107 216.584 29.196L215.842 29.7C215.59 29.3267 215.277 29.0514 214.904 28.874C214.53 28.6967 214.124 28.608 213.686 28.608C213.163 28.608 212.692 28.7294 212.272 28.972C211.852 29.2054 211.52 29.5367 211.278 29.966C211.035 30.3954 210.914 30.8994 210.914 31.478C210.914 32.0567 211.035 32.5607 211.278 32.99C211.52 33.4194 211.852 33.7554 212.272 33.998C212.692 34.2314 213.163 34.348 213.686 34.348C214.124 34.348 214.53 34.2594 214.904 34.082C215.277 33.9047 215.59 33.634 215.842 33.27L216.584 33.774C216.294 34.25 215.898 34.614 215.394 34.866C214.89 35.1087 214.325 35.23 213.7 35.23ZM222.2 35.16V24.772H223.194V35.16H222.2ZM230.566 35.16V33.536L230.524 33.27V30.554C230.524 29.9287 230.347 29.448 229.992 29.112C229.647 28.776 229.129 28.608 228.438 28.608C227.962 28.608 227.51 28.6874 227.08 28.846C226.651 29.0047 226.287 29.2147 225.988 29.476L225.54 28.734C225.914 28.4167 226.362 28.174 226.884 28.006C227.407 27.8287 227.958 27.74 228.536 27.74C229.488 27.74 230.221 27.978 230.734 28.454C231.257 28.9207 231.518 29.6347 231.518 30.596V35.16H230.566ZM228.032 35.23C227.482 35.23 227.001 35.1414 226.59 34.964C226.189 34.7774 225.881 34.5254 225.666 34.208C225.452 33.8814 225.344 33.508 225.344 33.088C225.344 32.7054 225.433 32.36 225.61 32.052C225.797 31.7347 226.096 31.4827 226.506 31.296C226.926 31.1 227.486 31.002 228.186 31.002H230.72V31.744H228.214C227.505 31.744 227.01 31.87 226.73 32.122C226.46 32.374 226.324 32.6867 226.324 33.06C226.324 33.48 226.488 33.816 226.814 34.068C227.141 34.32 227.598 34.446 228.186 34.446C228.746 34.446 229.227 34.32 229.628 34.068C230.039 33.8067 230.338 33.4334 230.524 32.948L230.748 33.634C230.562 34.1194 230.235 34.5067 229.768 34.796C229.311 35.0854 228.732 35.23 228.032 35.23ZM237.27 35.23C236.542 35.23 235.889 35.0714 235.31 34.754C234.741 34.4274 234.293 33.984 233.966 33.424C233.639 32.8547 233.476 32.206 233.476 31.478C233.476 30.7407 233.639 30.092 233.966 29.532C234.293 28.972 234.741 28.5334 235.31 28.216C235.889 27.8987 236.542 27.74 237.27 27.74C237.895 27.74 238.46 27.8614 238.964 28.104C239.468 28.3467 239.865 28.7107 240.154 29.196L239.412 29.7C239.16 29.3267 238.847 29.0514 238.474 28.874C238.101 28.6967 237.695 28.608 237.256 28.608C236.733 28.608 236.262 28.7294 235.842 28.972C235.422 29.2054 235.091 29.5367 234.848 29.966C234.605 30.3954 234.484 30.8994 234.484 31.478C234.484 32.0567 234.605 32.5607 234.848 32.99C235.091 33.4194 235.422 33.7554 235.842 33.998C236.262 34.2314 236.733 34.348 237.256 34.348C237.695 34.348 238.101 34.2594 238.474 34.082C238.847 33.9047 239.16 33.634 239.412 33.27L240.154 33.774C239.865 34.25 239.468 34.614 238.964 34.866C238.46 35.1087 237.895 35.23 237.27 35.23ZM245.145 35.23C244.519 35.23 243.973 35.1134 243.507 34.88C243.04 34.6467 242.676 34.2967 242.415 33.83C242.163 33.3634 242.037 32.78 242.037 32.08V27.81H243.031V31.968C243.031 32.752 243.222 33.3447 243.605 33.746C243.997 34.138 244.543 34.334 245.243 34.334C245.756 34.334 246.199 34.2314 246.573 34.026C246.955 33.8114 247.245 33.5034 247.441 33.102C247.646 32.7007 247.749 32.22 247.749 31.66V27.81H248.743V35.16H247.791V33.144L247.945 33.508C247.711 34.0494 247.347 34.474 246.853 34.782C246.367 35.0807 245.798 35.23 245.145 35.23ZM253.487 35.23C252.88 35.23 252.306 35.146 251.765 34.978C251.224 34.8007 250.799 34.5814 250.491 34.32L250.939 33.536C251.238 33.76 251.62 33.956 252.087 34.124C252.554 34.2827 253.044 34.362 253.557 34.362C254.257 34.362 254.761 34.2547 255.069 34.04C255.377 33.816 255.531 33.522 255.531 33.158C255.531 32.8874 255.442 32.6774 255.265 32.528C255.097 32.3694 254.873 32.2527 254.593 32.178C254.313 32.094 254 32.024 253.655 31.968C253.31 31.912 252.964 31.8467 252.619 31.772C252.283 31.6974 251.975 31.59 251.695 31.45C251.415 31.3007 251.186 31.1 251.009 30.848C250.841 30.596 250.757 30.26 250.757 29.84C250.757 29.4387 250.869 29.0794 251.093 28.762C251.317 28.4447 251.644 28.1974 252.073 28.02C252.512 27.8334 253.044 27.74 253.669 27.74C254.145 27.74 254.621 27.8054 255.097 27.936C255.573 28.0574 255.965 28.2207 256.273 28.426L255.839 29.224C255.512 29 255.162 28.8414 254.789 28.748C254.416 28.6454 254.042 28.594 253.669 28.594C253.006 28.594 252.516 28.7107 252.199 28.944C251.891 29.168 251.737 29.4574 251.737 29.812C251.737 30.092 251.821 30.3114 251.989 30.47C252.166 30.6287 252.395 30.7547 252.675 30.848C252.964 30.932 253.277 31.002 253.613 31.058C253.958 31.114 254.299 31.184 254.635 31.268C254.98 31.3427 255.293 31.45 255.573 31.59C255.862 31.7207 256.091 31.912 256.259 32.164C256.436 32.4067 256.525 32.7287 256.525 33.13C256.525 33.5594 256.404 33.9327 256.161 34.25C255.928 34.558 255.582 34.8007 255.125 34.978C254.677 35.146 254.131 35.23 253.487 35.23ZM263.903 35.16L260.641 27.81H261.677L264.673 34.628H264.183L267.221 27.81H268.201L264.925 35.16H263.903ZM272.518 35.23C271.752 35.23 271.08 35.0714 270.502 34.754C269.923 34.4274 269.47 33.984 269.144 33.424C268.817 32.8547 268.654 32.206 268.654 31.478C268.654 30.75 268.808 30.106 269.116 29.546C269.433 28.986 269.862 28.5474 270.404 28.23C270.954 27.9034 271.57 27.74 272.252 27.74C272.942 27.74 273.554 27.8987 274.086 28.216C274.627 28.524 275.052 28.9627 275.36 29.532C275.668 30.092 275.822 30.7407 275.822 31.478C275.822 31.5247 275.817 31.576 275.808 31.632C275.808 31.6787 275.808 31.73 275.808 31.786H269.41V31.044H275.276L274.884 31.338C274.884 30.806 274.767 30.3347 274.534 29.924C274.31 29.504 274.002 29.1774 273.61 28.944C273.218 28.7107 272.765 28.594 272.252 28.594C271.748 28.594 271.295 28.7107 270.894 28.944C270.492 29.1774 270.18 29.504 269.956 29.924C269.732 30.344 269.62 30.8247 269.62 31.366V31.52C269.62 32.08 269.741 32.5747 269.984 33.004C270.236 33.424 270.581 33.7554 271.02 33.998C271.468 34.2314 271.976 34.348 272.546 34.348C272.994 34.348 273.409 34.2687 273.792 34.11C274.184 33.9514 274.52 33.7087 274.8 33.382L275.36 34.026C275.033 34.418 274.622 34.7167 274.128 34.922C273.642 35.1274 273.106 35.23 272.518 35.23ZM277.845 35.16V24.772H278.839V35.16H277.845ZM284.601 35.23C283.891 35.23 283.252 35.0714 282.683 34.754C282.123 34.4274 281.679 33.984 281.353 33.424C281.026 32.8547 280.863 32.206 280.863 31.478C280.863 30.7407 281.026 30.092 281.353 29.532C281.679 28.972 282.123 28.5334 282.683 28.216C283.243 27.8987 283.882 27.74 284.601 27.74C285.329 27.74 285.973 27.8987 286.533 28.216C287.102 28.5334 287.545 28.972 287.863 29.532C288.189 30.092 288.353 30.7407 288.353 31.478C288.353 32.206 288.189 32.8547 287.863 33.424C287.545 33.984 287.102 34.4274 286.533 34.754C285.963 35.0714 285.319 35.23 284.601 35.23ZM284.601 34.348C285.133 34.348 285.604 34.2314 286.015 33.998C286.425 33.7554 286.747 33.4194 286.981 32.99C287.223 32.5514 287.345 32.0474 287.345 31.478C287.345 30.8994 287.223 30.3954 286.981 29.966C286.747 29.5367 286.425 29.2054 286.015 28.972C285.604 28.7294 285.137 28.608 284.615 28.608C284.092 28.608 283.625 28.7294 283.215 28.972C282.804 29.2054 282.477 29.5367 282.235 29.966C281.992 30.3954 281.871 30.8994 281.871 31.478C281.871 32.0474 281.992 32.5514 282.235 32.99C282.477 33.4194 282.804 33.7554 283.215 33.998C283.625 34.2314 284.087 34.348 284.601 34.348ZM290.382 35.16V24.772H291.376V35.16H290.382ZM296.507 35.23C295.816 35.23 295.284 35.0434 294.911 34.67C294.538 34.2967 294.351 33.7694 294.351 33.088V26.186H295.345V33.032C295.345 33.4614 295.452 33.7927 295.667 34.026C295.891 34.2594 296.208 34.376 296.619 34.376C297.058 34.376 297.422 34.25 297.711 33.998L298.061 34.712C297.865 34.8894 297.627 35.02 297.347 35.104C297.076 35.188 296.796 35.23 296.507 35.23ZM293.035 28.636V27.81H297.585V28.636H293.035ZM302.733 35.23C301.967 35.23 301.295 35.0714 300.717 34.754C300.138 34.4274 299.685 33.984 299.359 33.424C299.032 32.8547 298.869 32.206 298.869 31.478C298.869 30.75 299.023 30.106 299.331 29.546C299.648 28.986 300.077 28.5474 300.619 28.23C301.169 27.9034 301.785 27.74 302.467 27.74C303.157 27.74 303.769 27.8987 304.301 28.216C304.842 28.524 305.267 28.9627 305.575 29.532C305.883 30.092 306.037 30.7407 306.037 31.478C306.037 31.5247 306.032 31.576 306.023 31.632C306.023 31.6787 306.023 31.73 306.023 31.786H299.625V31.044H305.491L305.099 31.338C305.099 30.806 304.982 30.3347 304.749 29.924C304.525 29.504 304.217 29.1774 303.825 28.944C303.433 28.7107 302.98 28.594 302.467 28.594C301.963 28.594 301.51 28.7107 301.109 28.944C300.707 29.1774 300.395 29.504 300.171 29.924C299.947 30.344 299.835 30.8247 299.835 31.366V31.52C299.835 32.08 299.956 32.5747 300.199 33.004C300.451 33.424 300.796 33.7554 301.235 33.998C301.683 34.2314 302.191 34.348 302.761 34.348C303.209 34.348 303.624 34.2687 304.007 34.11C304.399 33.9514 304.735 33.7087 305.015 33.382L305.575 34.026C305.248 34.418 304.837 34.7167 304.343 34.922C303.857 35.1274 303.321 35.23 302.733 35.23ZM311.892 35.16V26.886C311.892 26.2327 312.083 25.7054 312.466 25.304C312.849 24.9027 313.399 24.702 314.118 24.702C314.398 24.702 314.669 24.7394 314.93 24.814C315.191 24.8887 315.411 25.0054 315.588 25.164L315.252 25.906C315.112 25.7847 314.949 25.696 314.762 25.64C314.575 25.5747 314.375 25.542 314.16 25.542C313.74 25.542 313.418 25.6587 313.194 25.892C312.97 26.1254 312.858 26.4707 312.858 26.928V28.048L312.886 28.51V35.16H311.892ZM310.576 28.636V27.81H315.126V28.636H310.576ZM320.937 35.16V33.536L320.895 33.27V30.554C320.895 29.9287 320.718 29.448 320.363 29.112C320.018 28.776 319.5 28.608 318.809 28.608C318.333 28.608 317.881 28.6874 317.451 28.846C317.022 29.0047 316.658 29.2147 316.359 29.476L315.911 28.734C316.285 28.4167 316.733 28.174 317.255 28.006C317.778 27.8287 318.329 27.74 318.907 27.74C319.859 27.74 320.592 27.978 321.105 28.454C321.628 28.9207 321.889 29.6347 321.889 30.596V35.16H320.937ZM318.403 35.23C317.853 35.23 317.372 35.1414 316.961 34.964C316.56 34.7774 316.252 34.5254 316.037 34.208C315.823 33.8814 315.715 33.508 315.715 33.088C315.715 32.7054 315.804 32.36 315.981 32.052C316.168 31.7347 316.467 31.4827 316.877 31.296C317.297 31.1 317.857 31.002 318.557 31.002H321.091V31.744H318.585C317.876 31.744 317.381 31.87 317.101 32.122C316.831 32.374 316.695 32.6867 316.695 33.06C316.695 33.48 316.859 33.816 317.185 34.068C317.512 34.32 317.969 34.446 318.557 34.446C319.117 34.446 319.598 34.32 319.999 34.068C320.41 33.8067 320.709 33.4334 320.895 32.948L321.119 33.634C320.933 34.1194 320.606 34.5067 320.139 34.796C319.682 35.0854 319.103 35.23 318.403 35.23ZM327.641 35.23C326.913 35.23 326.26 35.0714 325.681 34.754C325.112 34.4274 324.664 33.984 324.337 33.424C324.01 32.8547 323.847 32.206 323.847 31.478C323.847 30.7407 324.01 30.092 324.337 29.532C324.664 28.972 325.112 28.5334 325.681 28.216C326.26 27.8987 326.913 27.74 327.641 27.74C328.266 27.74 328.831 27.8614 329.335 28.104C329.839 28.3467 330.236 28.7107 330.525 29.196L329.783 29.7C329.531 29.3267 329.218 29.0514 328.845 28.874C328.472 28.6967 328.066 28.608 327.627 28.608C327.104 28.608 326.633 28.7294 326.213 28.972C325.793 29.2054 325.462 29.5367 325.219 29.966C324.976 30.3954 324.855 30.8994 324.855 31.478C324.855 32.0567 324.976 32.5607 325.219 32.99C325.462 33.4194 325.793 33.7554 326.213 33.998C326.633 34.2314 327.104 34.348 327.627 34.348C328.066 34.348 328.472 34.2594 328.845 34.082C329.218 33.9047 329.531 33.634 329.783 33.27L330.525 33.774C330.236 34.25 329.839 34.614 329.335 34.866C328.831 35.1087 328.266 35.23 327.641 35.23ZM332.368 35.16V27.81H333.362V35.16H332.368ZM332.872 26.186C332.667 26.186 332.494 26.116 332.354 25.976C332.214 25.836 332.144 25.668 332.144 25.472C332.144 25.276 332.214 25.1127 332.354 24.982C332.494 24.842 332.667 24.772 332.872 24.772C333.078 24.772 333.25 24.8374 333.39 24.968C333.53 25.0987 333.6 25.262 333.6 25.458C333.6 25.6634 333.53 25.836 333.39 25.976C333.26 26.116 333.087 26.186 332.872 26.186ZM336.128 35.16V24.772H337.122V35.16H336.128ZM339.888 35.16V27.81H340.882V35.16H339.888ZM340.392 26.186C340.187 26.186 340.014 26.116 339.874 25.976C339.734 25.836 339.664 25.668 339.664 25.472C339.664 25.276 339.734 25.1127 339.874 24.982C340.014 24.842 340.187 24.772 340.392 24.772C340.597 24.772 340.77 24.8374 340.91 24.968C341.05 25.0987 341.12 25.262 341.12 25.458C341.12 25.6634 341.05 25.836 340.91 25.976C340.779 26.116 340.607 26.186 340.392 26.186ZM345.622 35.23C345.015 35.23 344.441 35.146 343.9 34.978C343.358 34.8007 342.934 34.5814 342.626 34.32L343.074 33.536C343.372 33.76 343.755 33.956 344.222 34.124C344.688 34.2827 345.178 34.362 345.692 34.362C346.392 34.362 346.896 34.2547 347.204 34.04C347.512 33.816 347.666 33.522 347.666 33.158C347.666 32.8874 347.577 32.6774 347.4 32.528C347.232 32.3694 347.008 32.2527 346.728 32.178C346.448 32.094 346.135 32.024 345.79 31.968C345.444 31.912 345.099 31.8467 344.754 31.772C344.418 31.6974 344.11 31.59 343.83 31.45C343.55 31.3007 343.321 31.1 343.144 30.848C342.976 30.596 342.892 30.26 342.892 29.84C342.892 29.4387 343.004 29.0794 343.228 28.762C343.452 28.4447 343.778 28.1974 344.208 28.02C344.646 27.8334 345.178 27.74 345.804 27.74C346.28 27.74 346.756 27.8054 347.232 27.936C347.708 28.0574 348.1 28.2207 348.408 28.426L347.974 29.224C347.647 29 347.297 28.8414 346.924 28.748C346.55 28.6454 346.177 28.594 345.804 28.594C345.141 28.594 344.651 28.7107 344.334 28.944C344.026 29.168 343.872 29.4574 343.872 29.812C343.872 30.092 343.956 30.3114 344.124 30.47C344.301 30.6287 344.53 30.7547 344.81 30.848C345.099 30.932 345.412 31.002 345.748 31.058C346.093 31.114 346.434 31.184 346.77 31.268C347.115 31.3427 347.428 31.45 347.708 31.59C347.997 31.7207 348.226 31.912 348.394 32.164C348.571 32.4067 348.66 32.7287 348.66 33.13C348.66 33.5594 348.538 33.9327 348.296 34.25C348.062 34.558 347.717 34.8007 347.26 34.978C346.812 35.146 346.266 35.23 345.622 35.23ZM350.484 35.16V27.81H351.478V35.16H350.484ZM350.988 26.186C350.782 26.186 350.61 26.116 350.47 25.976C350.33 25.836 350.26 25.668 350.26 25.472C350.26 25.276 350.33 25.1127 350.47 24.982C350.61 24.842 350.782 24.772 350.988 24.772C351.193 24.772 351.366 24.8374 351.506 24.968C351.646 25.0987 351.716 25.262 351.716 25.458C351.716 25.6634 351.646 25.836 351.506 25.976C351.375 26.116 351.202 26.186 350.988 26.186ZM356.217 35.23C355.611 35.23 355.037 35.146 354.495 34.978C353.954 34.8007 353.529 34.5814 353.221 34.32L353.669 33.536C353.968 33.76 354.351 33.956 354.817 34.124C355.284 34.2827 355.774 34.362 356.287 34.362C356.987 34.362 357.491 34.2547 357.799 34.04C358.107 33.816 358.261 33.522 358.261 33.158C358.261 32.8874 358.173 32.6774 357.995 32.528C357.827 32.3694 357.603 32.2527 357.323 32.178C357.043 32.094 356.731 32.024 356.385 31.968C356.04 31.912 355.695 31.8467 355.349 31.772C355.013 31.6974 354.705 31.59 354.425 31.45C354.145 31.3007 353.917 31.1 353.739 30.848C353.571 30.596 353.487 30.26 353.487 29.84C353.487 29.4387 353.599 29.0794 353.823 28.762C354.047 28.4447 354.374 28.1974 354.803 28.02C355.242 27.8334 355.774 27.74 356.399 27.74C356.875 27.74 357.351 27.8054 357.827 27.936C358.303 28.0574 358.695 28.2207 359.003 28.426L358.569 29.224C358.243 29 357.893 28.8414 357.519 28.748C357.146 28.6454 356.773 28.594 356.399 28.594C355.737 28.594 355.247 28.7107 354.929 28.944C354.621 29.168 354.467 29.4574 354.467 29.812C354.467 30.092 354.551 30.3114 354.719 30.47C354.897 30.6287 355.125 30.7547 355.405 30.848C355.695 30.932 356.007 31.002 356.343 31.058C356.689 31.114 357.029 31.184 357.365 31.268C357.711 31.3427 358.023 31.45 358.303 31.59C358.593 31.7207 358.821 31.912 358.989 32.164C359.167 32.4067 359.255 32.7287 359.255 33.13C359.255 33.5594 359.134 33.9327 358.891 34.25C358.658 34.558 358.313 34.8007 357.855 34.978C357.407 35.146 356.861 35.23 356.217 35.23ZM3.276 55.16L0.014 47.81H1.05L4.046 54.628H3.556L6.594 47.81H7.574L4.298 55.16H3.276ZM11.7648 55.23C11.0555 55.23 10.4161 55.0714 9.84681 54.754C9.28681 54.4274 8.84348 53.984 8.51681 53.424C8.19015 52.8547 8.02681 52.206 8.02681 51.478C8.02681 50.7407 8.19015 50.092 8.51681 49.532C8.84348 48.972 9.28681 48.5334 9.84681 48.216C10.4068 47.8987 11.0461 47.74 11.7648 47.74C12.4928 47.74 13.1368 47.8987 13.6968 48.216C14.2661 48.5334 14.7095 48.972 15.0268 49.532C15.3535 50.092 15.5168 50.7407 15.5168 51.478C15.5168 52.206 15.3535 52.8547 15.0268 53.424C14.7095 53.984 14.2661 54.4274 13.6968 54.754C13.1275 55.0714 12.4835 55.23 11.7648 55.23ZM11.7648 54.348C12.2968 54.348 12.7681 54.2314 13.1788 53.998C13.5895 53.7554 13.9115 53.4194 14.1448 52.99C14.3875 52.5514 14.5088 52.0474 14.5088 51.478C14.5088 50.8994 14.3875 50.3954 14.1448 49.966C13.9115 49.5367 13.5895 49.2054 13.1788 48.972C12.7681 48.7294 12.3015 48.608 11.7788 48.608C11.2561 48.608 10.7895 48.7294 10.3788 48.972C9.96815 49.2054 9.64148 49.5367 9.39881 49.966C9.15615 50.3954 9.03481 50.8994 9.03481 51.478C9.03481 52.0474 9.15615 52.5514 9.39881 52.99C9.64148 53.4194 9.96815 53.7554 10.3788 53.998C10.7895 54.2314 11.2515 54.348 11.7648 54.348ZM17.5462 55.16V44.772H18.5402V55.16H17.5462ZM24.3439 55.23C23.7186 55.23 23.1726 55.1134 22.7059 54.88C22.2393 54.6467 21.8753 54.2967 21.6139 53.83C21.3619 53.3634 21.2359 52.78 21.2359 52.08V47.81H22.2299V51.968C22.2299 52.752 22.4213 53.3447 22.8039 53.746C23.1959 54.138 23.7419 54.334 24.4419 54.334C24.9553 54.334 25.3986 54.2314 25.7719 54.026C26.1546 53.8114 26.4439 53.5034 26.6399 53.102C26.8453 52.7007 26.9479 52.22 26.9479 51.66V47.81H27.9419V55.16H26.9899V53.144L27.1439 53.508C26.9106 54.0494 26.5466 54.474 26.0519 54.782C25.5666 55.0807 24.9973 55.23 24.3439 55.23ZM33.0362 55.23C32.3455 55.23 31.8135 55.0434 31.4402 54.67C31.0668 54.2967 30.8802 53.7694 30.8802 53.088V46.186H31.8742V53.032C31.8742 53.4614 31.9815 53.7927 32.1962 54.026C32.4202 54.2594 32.7375 54.376 33.1482 54.376C33.5868 54.376 33.9508 54.25 34.2402 53.998L34.5902 54.712C34.3942 54.8894 34.1562 55.02 33.8762 55.104C33.6055 55.188 33.3255 55.23 33.0362 55.23ZM29.5642 48.636V47.81H34.1142V48.636H29.5642ZM40.1937 55.23C39.559 55.23 38.985 55.0854 38.4717 54.796C37.9583 54.4974 37.5477 54.0727 37.2397 53.522C36.941 52.962 36.7917 52.2807 36.7917 51.478C36.7917 50.6754 36.941 49.9987 37.2397 49.448C37.5383 48.888 37.9443 48.4634 38.4577 48.174C38.971 47.8847 39.5497 47.74 40.1937 47.74C40.8937 47.74 41.519 47.8987 42.0697 48.216C42.6297 48.524 43.0683 48.9627 43.3857 49.532C43.703 50.092 43.8617 50.7407 43.8617 51.478C43.8617 52.2247 43.703 52.878 43.3857 53.438C43.0683 53.998 42.6297 54.4367 42.0697 54.754C41.519 55.0714 40.8937 55.23 40.1937 55.23ZM36.3997 57.876V47.81H37.3517V50.022L37.2537 51.492L37.3937 52.976V57.876H36.3997ZM40.1237 54.348C40.6463 54.348 41.113 54.2314 41.5237 53.998C41.9343 53.7554 42.261 53.4194 42.5037 52.99C42.7463 52.5514 42.8677 52.0474 42.8677 51.478C42.8677 50.9087 42.7463 50.4094 42.5037 49.98C42.261 49.5507 41.9343 49.2147 41.5237 48.972C41.113 48.7294 40.6463 48.608 40.1237 48.608C39.601 48.608 39.1297 48.7294 38.7097 48.972C38.299 49.2147 37.9723 49.5507 37.7297 49.98C37.4963 50.4094 37.3797 50.9087 37.3797 51.478C37.3797 52.0474 37.4963 52.5514 37.7297 52.99C37.9723 53.4194 38.299 53.7554 38.7097 53.998C39.1297 54.2314 39.601 54.348 40.1237 54.348ZM50.4529 55.16V53.536L50.4109 53.27V50.554C50.4109 49.9287 50.2336 49.448 49.8789 49.112C49.5336 48.776 49.0156 48.608 48.3249 48.608C47.8489 48.608 47.3963 48.6874 46.9669 48.846C46.5376 49.0047 46.1736 49.2147 45.8749 49.476L45.4269 48.734C45.8003 48.4167 46.2483 48.174 46.7709 48.006C47.2936 47.8287 47.8443 47.74 48.4229 47.74C49.3749 47.74 50.1076 47.978 50.6209 48.454C51.1436 48.9207 51.4049 49.6347 51.4049 50.596V55.16H50.4529ZM47.9189 55.23C47.3683 55.23 46.8876 55.1414 46.4769 54.964C46.0756 54.7774 45.7676 54.5254 45.5529 54.208C45.3383 53.8814 45.2309 53.508 45.2309 53.088C45.2309 52.7054 45.3196 52.36 45.4969 52.052C45.6836 51.7347 45.9823 51.4827 46.3929 51.296C46.8129 51.1 47.3729 51.002 48.0729 51.002H50.6069V51.744H48.1009C47.3916 51.744 46.8969 51.87 46.6169 52.122C46.3463 52.374 46.2109 52.6867 46.2109 53.06C46.2109 53.48 46.3743 53.816 46.7009 54.068C47.0276 54.32 47.4849 54.446 48.0729 54.446C48.6329 54.446 49.1136 54.32 49.5149 54.068C49.9256 53.8067 50.2243 53.4334 50.4109 52.948L50.6349 53.634C50.4483 54.1194 50.1216 54.5067 49.6549 54.796C49.1976 55.0854 48.6189 55.23 47.9189 55.23ZM56.4288 55.23C55.7381 55.23 55.2061 55.0434 54.8328 54.67C54.4594 54.2967 54.2728 53.7694 54.2728 53.088V46.186H55.2668V53.032C55.2668 53.4614 55.3741 53.7927 55.5888 54.026C55.8128 54.2594 56.1301 54.376 56.5408 54.376C56.9794 54.376 57.3434 54.25 57.6328 53.998L57.9828 54.712C57.7868 54.8894 57.5488 55.02 57.2688 55.104C56.9981 55.188 56.7181 55.23 56.4288 55.23ZM52.9568 48.636V47.81H57.5068V48.636H52.9568ZM66.5783 55.23C65.813 55.23 65.141 55.0714 64.5623 54.754C63.9836 54.4274 63.531 53.984 63.2043 53.424C62.8776 52.8547 62.7143 52.206 62.7143 51.478C62.7143 50.75 62.8683 50.106 63.1763 49.546C63.4936 48.986 63.923 48.5474 64.4643 48.23C65.015 47.9034 65.631 47.74 66.3123 47.74C67.003 47.74 67.6143 47.8987 68.1463 48.216C68.6876 48.524 69.1123 48.9627 69.4203 49.532C69.7283 50.092 69.8823 50.7407 69.8823 51.478C69.8823 51.5247 69.8776 51.576 69.8683 51.632C69.8683 51.6787 69.8683 51.73 69.8683 51.786H63.4703V51.044H69.3363L68.9443 51.338C68.9443 50.806 68.8276 50.3347 68.5943 49.924C68.3703 49.504 68.0623 49.1774 67.6703 48.944C67.2783 48.7107 66.8256 48.594 66.3123 48.594C65.8083 48.594 65.3556 48.7107 64.9543 48.944C64.553 49.1774 64.2403 49.504 64.0163 49.924C63.7923 50.344 63.6803 50.8247 63.6803 51.366V51.52C63.6803 52.08 63.8016 52.5747 64.0443 53.004C64.2963 53.424 64.6416 53.7554 65.0803 53.998C65.5283 54.2314 66.037 54.348 66.6063 54.348C67.0543 54.348 67.4696 54.2687 67.8523 54.11C68.2443 53.9514 68.5803 53.7087 68.8603 53.382L69.4203 54.026C69.0936 54.418 68.683 54.7167 68.1883 54.922C67.703 55.1274 67.1663 55.23 66.5783 55.23ZM73.8795 55.23C73.2729 55.23 72.6989 55.146 72.1575 54.978C71.6162 54.8007 71.1915 54.5814 70.8835 54.32L71.3315 53.536C71.6302 53.76 72.0129 53.956 72.4795 54.124C72.9462 54.2827 73.4362 54.362 73.9495 54.362C74.6495 54.362 75.1535 54.2547 75.4615 54.04C75.7695 53.816 75.9235 53.522 75.9235 53.158C75.9235 52.8874 75.8349 52.6774 75.6575 52.528C75.4895 52.3694 75.2655 52.2527 74.9855 52.178C74.7055 52.094 74.3929 52.024 74.0475 51.968C73.7022 51.912 73.3569 51.8467 73.0115 51.772C72.6755 51.6974 72.3675 51.59 72.0875 51.45C71.8075 51.3007 71.5789 51.1 71.4015 50.848C71.2335 50.596 71.1495 50.26 71.1495 49.84C71.1495 49.4387 71.2615 49.0794 71.4855 48.762C71.7095 48.4447 72.0362 48.1974 72.4655 48.02C72.9042 47.8334 73.4362 47.74 74.0615 47.74C74.5375 47.74 75.0135 47.8054 75.4895 47.936C75.9655 48.0574 76.3575 48.2207 76.6655 48.426L76.2315 49.224C75.9049 49 75.5549 48.8414 75.1815 48.748C74.8082 48.6454 74.4349 48.594 74.0615 48.594C73.3989 48.594 72.9089 48.7107 72.5915 48.944C72.2835 49.168 72.1295 49.4574 72.1295 49.812C72.1295 50.092 72.2135 50.3114 72.3815 50.47C72.5589 50.6287 72.7875 50.7547 73.0675 50.848C73.3569 50.932 73.6695 51.002 74.0055 51.058C74.3509 51.114 74.6915 51.184 75.0275 51.268C75.3729 51.3427 75.6855 51.45 75.9655 51.59C76.2549 51.7207 76.4835 51.912 76.6515 52.164C76.8289 52.4067 76.9175 52.7287 76.9175 53.13C76.9175 53.5594 76.7962 53.9327 76.5535 54.25C76.3202 54.558 75.9749 54.8007 75.5175 54.978C75.0695 55.146 74.5235 55.23 73.8795 55.23ZM81.0655 55.23C80.3748 55.23 79.8428 55.0434 79.4695 54.67C79.0961 54.2967 78.9095 53.7694 78.9095 53.088V46.186H79.9035V53.032C79.9035 53.4614 80.0108 53.7927 80.2255 54.026C80.4495 54.2594 80.7668 54.376 81.1775 54.376C81.6161 54.376 81.9801 54.25 82.2695 53.998L82.6195 54.712C82.4235 54.8894 82.1855 55.02 81.9055 55.104C81.6348 55.188 81.3548 55.23 81.0655 55.23ZM77.5935 48.636V47.81H82.1435V48.636H77.5935ZM89.983 55.16L86.721 47.81H87.757L90.753 54.628H90.263L93.301 47.81H94.281L91.005 55.16H89.983ZM98.5978 55.23C97.8325 55.23 97.1605 55.0714 96.5818 54.754C96.0032 54.4274 95.5505 53.984 95.2238 53.424C94.8972 52.8547 94.7338 52.206 94.7338 51.478C94.7338 50.75 94.8878 50.106 95.1958 49.546C95.5132 48.986 95.9425 48.5474 96.4838 48.23C97.0345 47.9034 97.6505 47.74 98.3318 47.74C99.0225 47.74 99.6338 47.8987 100.166 48.216C100.707 48.524 101.132 48.9627 101.44 49.532C101.748 50.092 101.902 50.7407 101.902 51.478C101.902 51.5247 101.897 51.576 101.888 51.632C101.888 51.6787 101.888 51.73 101.888 51.786H95.4898V51.044H101.356L100.964 51.338C100.964 50.806 100.847 50.3347 100.614 49.924C100.39 49.504 100.082 49.1774 99.6898 48.944C99.2978 48.7107 98.8452 48.594 98.3318 48.594C97.8278 48.594 97.3752 48.7107 96.9738 48.944C96.5725 49.1774 96.2598 49.504 96.0358 49.924C95.8118 50.344 95.6998 50.8247 95.6998 51.366V51.52C95.6998 52.08 95.8212 52.5747 96.0638 53.004C96.3158 53.424 96.6612 53.7554 97.0998 53.998C97.5478 54.2314 98.0565 54.348 98.6258 54.348C99.0738 54.348 99.4892 54.2687 99.8718 54.11C100.264 53.9514 100.6 53.7087 100.88 53.382L101.44 54.026C101.113 54.418 100.703 54.7167 100.208 54.922C99.7225 55.1274 99.1858 55.23 98.5978 55.23ZM103.925 55.16V44.772H104.919V55.16H103.925ZM107.685 55.16V47.81H108.679V55.16H107.685ZM108.189 46.186C107.983 46.186 107.811 46.116 107.671 45.976C107.531 45.836 107.461 45.668 107.461 45.472C107.461 45.276 107.531 45.1127 107.671 44.982C107.811 44.842 107.983 44.772 108.189 44.772C108.394 44.772 108.567 44.8374 108.707 44.968C108.847 45.0987 108.917 45.262 108.917 45.458C108.917 45.6634 108.847 45.836 108.707 45.976C108.576 46.116 108.403 46.186 108.189 46.186ZM113.769 55.23C113.078 55.23 112.546 55.0434 112.173 54.67C111.799 54.2967 111.613 53.7694 111.613 53.088V46.186H112.607V53.032C112.607 53.4614 112.714 53.7927 112.929 54.026C113.153 54.2594 113.47 54.376 113.881 54.376C114.319 54.376 114.683 54.25 114.973 53.998L115.323 54.712C115.127 54.8894 114.889 55.02 114.609 55.104C114.338 55.188 114.058 55.23 113.769 55.23ZM110.297 48.636V47.81H114.847V48.636H110.297ZM119.868 55.23C119.159 55.23 118.52 55.0714 117.95 54.754C117.39 54.4274 116.947 53.984 116.62 53.424C116.294 52.8547 116.13 52.206 116.13 51.478C116.13 50.7407 116.294 50.092 116.62 49.532C116.947 48.972 117.39 48.5334 117.95 48.216C118.51 47.8987 119.15 47.74 119.868 47.74C120.596 47.74 121.24 47.8987 121.8 48.216C122.37 48.5334 122.813 48.972 123.13 49.532C123.457 50.092 123.62 50.7407 123.62 51.478C123.62 52.206 123.457 52.8547 123.13 53.424C122.813 53.984 122.37 54.4274 121.8 54.754C121.231 55.0714 120.587 55.23 119.868 55.23ZM119.868 54.348C120.4 54.348 120.872 54.2314 121.282 53.998C121.693 53.7554 122.015 53.4194 122.248 52.99C122.491 52.5514 122.612 52.0474 122.612 51.478C122.612 50.8994 122.491 50.3954 122.248 49.966C122.015 49.5367 121.693 49.2054 121.282 48.972C120.872 48.7294 120.405 48.608 119.882 48.608C119.36 48.608 118.893 48.7294 118.482 48.972C118.072 49.2054 117.745 49.5367 117.502 49.966C117.26 50.3954 117.138 50.8994 117.138 51.478C117.138 52.0474 117.26 52.5514 117.502 52.99C117.745 53.4194 118.072 53.7554 118.482 53.998C118.893 54.2314 119.355 54.348 119.868 54.348ZM125.65 55.16V44.772H126.644V55.16H125.65ZM138.593 47.74C139.191 47.74 139.709 47.8567 140.147 48.09C140.595 48.314 140.941 48.6594 141.183 49.126C141.435 49.5927 141.561 50.1807 141.561 50.89V55.16H140.567V50.988C140.567 50.2134 140.381 49.63 140.007 49.238C139.643 48.8367 139.125 48.636 138.453 48.636C137.949 48.636 137.511 48.7434 137.137 48.958C136.773 49.1634 136.489 49.4667 136.283 49.868C136.087 50.26 135.989 50.736 135.989 51.296V55.16H134.995V50.988C134.995 50.2134 134.809 49.63 134.435 49.238C134.062 48.8367 133.539 48.636 132.867 48.636C132.373 48.636 131.939 48.7434 131.565 48.958C131.192 49.1634 130.903 49.4667 130.697 49.868C130.501 50.26 130.403 50.736 130.403 51.296V55.16H129.409V47.81H130.361V49.798L130.207 49.448C130.431 48.916 130.791 48.5007 131.285 48.202C131.789 47.894 132.382 47.74 133.063 47.74C133.782 47.74 134.393 47.922 134.897 48.286C135.401 48.6407 135.728 49.1774 135.877 49.896L135.485 49.742C135.7 49.1447 136.078 48.664 136.619 48.3C137.17 47.9267 137.828 47.74 138.593 47.74ZM144.355 55.23C144.15 55.23 143.972 55.1554 143.823 55.006C143.683 54.8567 143.613 54.6747 143.613 54.46C143.613 54.236 143.683 54.054 143.823 53.914C143.972 53.774 144.15 53.704 144.355 53.704C144.56 53.704 144.733 53.774 144.873 53.914C145.022 54.054 145.097 54.236 145.097 54.46C145.097 54.6747 145.022 54.8567 144.873 55.006C144.733 55.1554 144.56 55.23 144.355 55.23Z" fill="#333333"/>
</svg>
